<?xml version="1.0" encoding="UTF-8"?>
<!DOCTYPE svg PUBLIC "-//W3C//DTD SVG 1.1//EN" "http://www.w3.org/Graphics/SVG/1.1/DTD/svg11.dtd">
<!-- Creator: CorelDRAW X7 -->
<svg xmlns="http://www.w3.org/2000/svg" xml:space="preserve" width="3000px" height="3000px" version="1.1" style="shape-rendering:geometricPrecision; text-rendering:geometricPrecision; image-rendering:optimizeQuality; fill-rule:evenodd; clip-rule:evenodd"
viewBox="0 0 3000 3000"
 xmlns:xlink="http://www.w3.org/1999/xlink">
 <defs>
  <style type="text/css">
   <![CDATA[
    .fil0 {fill:none}
    .fil3 {fill:#FEFEFE}
    .fil6 {fill:#332C2B}
    .fil2 {fill:#FFF000}
    .fil4 {fill:#009B4C}
    .fil1 {fill:#1D1819}
    .fil5 {fill:#FEFEFE;fill-rule:nonzero}
    .fil7 {fill:#332C2B;fill-rule:nonzero}
    .fil8 {fill:#1D1819;fill-rule:nonzero}
   ]]>
  </style>
 </defs>
 <g id="Layer_x0020_1">
  <metadata id="CorelCorpID_0Corel-Layer"/>
  <rect class="fil0" width="3000" height="3000"/>
  <g id="Kabupaten_x0020_Bogor.cdr">
   <path class="fil1" d="M327 100l2346 0 0 1748c0,352 -276,684 -556,797 -207,84 -439,95 -617,255 -155,-139 -352,-165 -537,-226 -311,-101 -636,-431 -636,-826l0 -1748z"/>
   <path class="fil2" d="M367 151l0 1703c0,370 309,686 607,783 183,59 369,86 526,212 46,-37 96,-66 149,-91 147,-67 306,-89 454,-149 266,-108 530,-425 530,-755l0 -1703 -2266 0z"/>
   <polygon class="fil1" points="1500,2013 924,2013 497,923 1500,281 2503,923 2076,2013 "/>
   <polygon class="fil3" points="2063,1995 2481,930 1500,302 519,930 937,1995 "/>
   <polygon class="fil4" points="2033,1950 2426,948 1500,356 574,948 967,1950 "/>
   <circle class="fil3" cx="1500" cy="1226" r="645"/>
   <circle class="fil1" cx="1500" cy="1226" r="627"/>
   <path class="fil2" d="M1092 1683l73 -75c188,153 482,153 670,0l73 75c-110,92 -236,146 -397,151 -151,4 -300,-51 -419,-151z"/>
   <path class="fil5" d="M1193 1587l20 -2c2,7 4,12 8,16 4,3 9,5 16,5 6,0 12,-2 15,-5 4,-3 5,-6 5,-10 0,-3 0,-5 -2,-7 -1,-2 -4,-3 -8,-5 -2,0 -8,-2 -17,-4 -11,-3 -19,-7 -24,-11 -6,-6 -10,-13 -10,-22 0,-5 2,-11 5,-15 3,-5 7,-9 13,-11 6,-3 13,-4 21,-4 13,0 23,3 30,9 7,6 10,14 11,24l-22 1c-1,-6 -3,-10 -6,-12 -3,-3 -7,-4 -13,-4 -6,0 -11,1 -15,4 -2,2 -3,4 -3,7 0,2 1,4 3,6 3,3 9,5 20,8 10,2 18,5 23,7 5,3 9,7 11,11 3,5 5,11 5,18 0,6 -2,12 -5,17 -4,6 -8,10 -15,12 -6,3 -14,4 -23,4 -13,0 -23,-3 -31,-9 -7,-7 -11,-16 -12,-28zm199 35l-23 0 -9 -24 -43 0 -8 24 -23 0 41 -108 23 0 42 108zm-39 -43l-15 -40 -14 40 29 0zm65 43l0 -45 -39 -63 25 0 25 43 24 -43 25 0 -39 63 0 45 -21 0zm153 0l-24 0 -9 -24 -42 0 -9 24 -23 0 42 -108 22 0 43 108zm-40 -43l-14 -40 -15 40 29 0zm100 3l0 -18 46 0 0 43c-4,5 -11,9 -19,12 -9,3 -17,5 -26,5 -11,0 -21,-2 -29,-7 -8,-5 -14,-12 -19,-20 -4,-9 -6,-19 -6,-29 0,-12 3,-22 7,-31 5,-8 12,-15 21,-20 6,-3 15,-5 25,-5 13,0 23,3 31,8 7,6 12,14 14,24l-21 4c-2,-5 -5,-10 -9,-13 -4,-3 -9,-4 -15,-4 -9,0 -17,3 -22,9 -6,6 -9,15 -9,27 0,13 3,22 9,29 5,6 13,9 22,9 4,0 9,-1 13,-2 5,-2 8,-4 12,-7l0 -14 -25 0zm162 40l-24 0 -9 -24 -42 0 -9 24 -23 0 42 -108 22 0 43 108zm-40 -43l-14 -40 -15 40 29 0z"/>
   <polygon class="fil2" points="1500,674 2022,1491 978,1491 "/>
   <path class="fil5" d="M1038 1354l-107 19 -6 -33c-3,-13 -4,-22 -3,-26 0,-6 3,-12 8,-17 4,-5 11,-8 19,-10 7,-1 13,-1 18,1 4,2 9,4 12,7 3,3 5,7 7,10 2,5 3,12 5,22l3 13 40 -7 4 21zm-93 -5l30 -5 -2 -12c-1,-8 -3,-14 -4,-16 -2,-3 -4,-5 -7,-6 -2,-1 -5,-1 -9,-1 -3,1 -6,3 -9,5 -2,3 -3,6 -3,10 0,2 1,7 2,15l2 10zm75 -92l-109 -4 2 -45c0,-11 2,-19 4,-25 2,-5 6,-9 11,-12 5,-2 11,-4 17,-4 8,1 15,3 20,8 5,5 8,12 9,22 3,-5 6,-9 10,-12 3,-3 9,-6 18,-11l22 -12 -1 25 -25 15c-8,5 -14,9 -16,11 -2,2 -4,4 -5,6 -1,2 -1,6 -1,11l0 4 45 2 -1 21zm-62 -24l1 -16c0,-10 0,-16 -1,-19 -1,-2 -2,-4 -4,-6 -2,-2 -5,-2 -8,-2 -4,-1 -7,0 -9,2 -3,2 -4,5 -5,8 0,2 -1,7 -1,16l0 16 27 1zm99 -198l-6 22 -27 2 -12 41 22 15 -6 22 -94 -70 7 -21 116 -11zm-52 26l-43 3 35 25 8 -28zm66 -48l-40 -21 -74 4 11 -22 50 -2 -26 -41 11 -22 38 64 40 21 -10 19zm-9 -94c-8,-7 -14,-15 -18,-22 -2,-5 -4,-11 -5,-17 0,-6 0,-12 2,-17 2,-7 6,-14 12,-20 10,-12 22,-18 36,-19 13,0 27,5 40,17 14,11 21,24 22,38 2,13 -3,26 -13,38 -10,11 -22,18 -36,18 -14,1 -27,-5 -40,-16zm14 -17c9,8 18,12 27,12 8,0 15,-3 21,-10 5,-6 8,-14 6,-22 -1,-8 -6,-16 -16,-25 -9,-8 -18,-12 -26,-12 -8,0 -15,3 -21,10 -6,7 -8,14 -7,22 1,8 7,17 16,25zm133 -106l-10 -15 37 -26 25 35c-1,6 -4,13 -9,21 -5,8 -11,14 -18,19 -9,6 -19,10 -28,11 -10,1 -19,-1 -27,-6 -9,-5 -16,-12 -22,-21 -6,-9 -10,-18 -12,-28 -1,-10 1,-20 5,-29 4,-6 10,-13 18,-19 11,-7 21,-11 30,-10 10,0 18,4 26,11l-16 15c-4,-3 -9,-5 -14,-5 -5,0 -10,1 -15,5 -8,5 -12,12 -13,20 -1,8 2,17 9,27 7,11 15,17 23,19 8,2 16,1 24,-5 3,-2 7,-6 9,-10 3,-4 5,-8 6,-12l-8 -11 -20 14zm186 -39l-22 8 -17 -21 -40 13 -1 26 -21 7 5 -116 22 -7 74 90zm-51 -28l-26 -34 -1 43 27 -9zm274 34l24 -87 -31 -9 5 -17 82 21 -5 18 -30 -8 -24 87 -21 -5zm121 -15c6,-9 13,-16 19,-21 5,-3 11,-6 17,-7 6,-2 11,-2 16,-1 8,1 15,4 22,8 13,8 21,19 24,33 3,13 -1,27 -10,42 -9,15 -20,25 -34,28 -13,3 -26,1 -39,-7 -14,-9 -22,-19 -24,-33 -3,-13 0,-27 9,-42zm20 11c-7,11 -10,20 -8,29 1,8 5,14 13,19 7,4 15,5 23,3 8,-3 15,-9 22,-20 6,-10 9,-20 8,-28 -2,-8 -6,-14 -14,-19 -7,-4 -15,-6 -23,-3 -8,2 -15,9 -21,19zm76 123l83 -71 14 16 -33 28 28 32 32 -28 14 16 -82 71 -14 -16 36 -31 -28 -32 -35 31 -15 -16zm125 200l-10 -22 18 -18 -18 -39 -26 3 -9 -21 116 -8 9 20 -80 85zm22 -54l30 -31 -42 4 12 27zm33 139l18 -3 7 46 -43 6c-5,-4 -10,-10 -15,-18 -4,-8 -7,-16 -8,-25 -2,-11 -1,-21 3,-29 3,-9 9,-16 17,-22 9,-5 18,-8 28,-10 11,-1 22,-1 31,3 9,3 17,9 23,17 5,6 7,15 9,25 2,13 0,23 -4,31 -5,9 -12,14 -22,18l-7 -21c6,-2 9,-5 12,-10 2,-4 3,-10 2,-16 -1,-9 -5,-16 -12,-21 -7,-4 -16,-6 -28,-4 -13,2 -22,6 -27,12 -6,7 -8,14 -7,23 1,5 2,9 5,13 2,5 5,8 8,11l13 -2 -3 -24zm-54 195l5 -23 25 -5 8 -41 -23 -13 4 -23 100 60 -4 22 -115 23zm50 -31l42 -8 -37 -21 -5 29z"/>
   <polygon class="fil6" points="1528,793 1549,829 1569,864 1528,864 1518,864 1487,864 1474,864 1431,864 1453,826 1474,789 1496,826 1503,838 1508,829 "/>
   <path class="fil7" d="M786 2329l35 -83 -30 -12 8 -17 79 33 -7 17 -30 -12 -35 83 -20 -9zm85 32l30 -104 77 22 -5 17 -56 -16 -7 23 52 16 -5 17 -52 -15 -8 29 58 16 -5 18 -79 -23zm178 3l3 -18 47 10 -9 42c-6,3 -13,6 -22,7 -10,2 -19,2 -27,0 -11,-3 -21,-7 -28,-13 -7,-7 -12,-15 -14,-24 -3,-10 -3,-20 -1,-30 3,-11 7,-20 14,-28 6,-8 14,-13 24,-16 8,-2 17,-2 27,1 13,2 23,7 29,14 6,8 9,16 10,26l-23 0c0,-6 -2,-10 -5,-14 -4,-4 -9,-7 -15,-8 -9,-2 -17,-1 -24,4 -7,5 -12,13 -14,25 -3,12 -2,22 2,30 4,8 11,12 20,14 5,1 9,1 14,0 5,0 10,-2 13,-4l3 -13 -24 -5zm179 69l-24 -4 -6 -26 -43 -6 -12 24 -23 -4 57 -101 23 3 28 114zm-34 -49l-9 -42 -21 38 30 4zm68 51l10 -108 46 4c11,1 20,2 25,5 5,2 9,6 12,11 2,6 3,11 3,18 -1,8 -4,14 -9,19 -5,5 -13,8 -22,8 4,4 8,7 10,11 3,3 7,9 11,18l12 23 -26 -3 -14 -25c-5,-9 -8,-14 -10,-17 -2,-2 -4,-4 -6,-5 -3,-1 -6,-1 -11,-2l-5 0 -4 45 -22 -2zm28 -61l16 2c10,1 17,1 20,0 2,0 5,-2 6,-4 2,-2 3,-4 3,-8 0,-3 0,-6 -2,-9 -2,-2 -4,-4 -8,-5 -2,0 -7,-1 -16,-2l-17 -1 -2 27zm149 -38l44 1c9,0 15,1 19,1 4,1 8,3 11,5 4,2 6,5 9,9 2,4 3,8 3,13 0,5 -2,10 -5,14 -2,4 -6,7 -11,9 7,2 12,6 15,10 4,5 5,11 5,17 0,5 -1,10 -3,14 -3,5 -6,9 -10,11 -4,3 -9,5 -15,5 -4,1 -12,1 -26,1l-37 -1 1 -109zm22 19l0 25 14 0c9,0 14,0 16,0 4,0 7,-2 9,-4 2,-2 3,-5 3,-8 0,-4 0,-6 -2,-8 -2,-3 -5,-4 -9,-4 -2,-1 -8,-1 -18,-1l-13 0zm-1 43l0 29 20 0c8,0 13,0 15,0 4,-1 6,-2 8,-4 2,-3 3,-6 4,-9 0,-4 -1,-6 -3,-9 -1,-2 -4,-4 -6,-5 -3,-1 -10,-2 -20,-2l-18 0zm110 49l-5 -108 80 -5 1 19 -58 3 1 24 54 -3 1 18 -54 3 1 30 61 -3 1 18 -83 4zm125 -6l-10 -109 47 -4c11,-1 20,0 25,1 6,2 10,5 14,9 3,5 5,11 6,17 1,8 -1,15 -6,21 -4,5 -11,9 -20,12 5,2 9,5 12,8 4,3 8,8 14,16l15 20 -26 3 -18 -23c-6,-8 -10,-13 -13,-15 -2,-2 -4,-3 -7,-4 -2,0 -6,0 -11,0l-4 1 4 45 -22 2zm16 -65l17 -1c10,-1 17,-2 19,-3 3,-1 5,-3 6,-5 1,-3 2,-5 1,-9 0,-3 -1,-6 -3,-8 -2,-2 -5,-3 -9,-4 -2,0 -7,0 -16,1l-17 2 2 27zm115 51l-16 -108 22 -3 15 108 -21 3zm65 -9l-20 -106 32 -7 33 69 5 -76 33 -7 20 107 -20 4 -16 -84 -5 88 -21 4 -37 -80 16 84 -20 4zm241 -55l-23 7 -16 -22 -41 12 -2 27 -23 6 11 -116 23 -7 71 93zm-50 -30l-26 -35 -3 43 29 -8zm84 20l-39 -102 20 -8 68 52 -26 -68 19 -7 39 102 -21 8 -66 -51 25 66 -19 8z"/>
   <path class="fil7" d="M1138 1701l29 -44 9 5 -13 20 30 -9 11 8 -27 7 0 38 -11 -7 1 -29 -11 3 -9 13 -9 -5zm68 -20l9 5 -13 25c-2,4 -3,7 -4,8 0,2 0,4 0,6 1,2 3,4 5,5 3,1 5,2 7,1 2,0 3,-1 5,-2 1,-2 2,-4 4,-8l14 -26 9 5 -13 24c-3,6 -5,10 -7,12 -2,2 -4,3 -6,4 -2,1 -5,2 -7,1 -3,0 -6,-1 -10,-3 -4,-2 -7,-4 -8,-6 -2,-3 -3,-5 -3,-7 -1,-3 -1,-5 0,-7 1,-3 2,-7 5,-12l13 -25zm31 74l19 -40 -14 -6 4 -8 36 17 -3 8 -14 -6 -18 39 -10 -4zm67 27l-11 -4 0 -13 -19 -6 -8 10 -10 -4 36 -43 10 3 2 57zm-11 -26l0 -21 -13 16 13 5zm45 -19l10 2 -7 28c-1,4 -2,7 -2,8 0,3 1,5 2,6 1,2 3,3 6,4 3,0 5,0 7,0 1,-1 3,-3 3,-4 1,-2 2,-5 3,-9l7 -28 10 2 -7 27c-1,6 -3,11 -4,13 -1,2 -3,4 -4,6 -2,1 -5,2 -7,2 -3,1 -6,1 -10,0 -5,-2 -8,-3 -10,-5 -2,-1 -4,-3 -5,-6 -1,-2 -1,-4 -1,-6 0,-3 1,-7 2,-13l7 -27zm47 10l18 4c4,1 7,2 9,3 3,1 5,3 7,6 1,3 2,6 3,9 0,4 0,8 -1,13 -1,4 -2,8 -4,11 -2,3 -4,6 -7,8 -2,1 -4,2 -7,3 -3,0 -6,0 -10,-1l-18 -4 10 -52zm8 11l-7 35 8 1c3,0 5,1 6,1 2,0 3,-1 4,-2 2,-1 3,-2 4,-4 1,-2 2,-6 3,-10 1,-4 1,-7 1,-9 -1,-2 -1,-4 -2,-5 -1,-2 -3,-3 -4,-4 -2,0 -4,-1 -8,-2l-5 -1zm77 54l-11 -1 -3 -13 -20 -1 -5 11 -11 -1 24 -51 11 1 15 55zm-17 -23l-5 -20 -8 19 13 1zm30 23l0 -23 -17 -31 12 1 11 21 12 -21 12 1 -19 30 -1 22 -10 0zm72 -2l-11 0 -5 -12 -20 1 -3 12 -11 1 18 -54 10 0 22 52zm-19 -20l-8 -20 -6 20 14 0zm49 17l-22 -49 10 -2 14 34 2 -38 12 -2 16 35 1 -38 10 -2 -2 54 -11 2 -17 -37 -3 41 -10 2zm99 -21l-11 3 -7 -11 -20 5 -1 13 -11 2 7 -56 10 -2 33 46zm-24 -16l-11 -17 -2 21 13 -4zm29 14l-17 -50 9 -3 31 27 -11 -34 8 -3 18 50 -10 3 -30 -26 11 33 -9 3zm61 -44l-4 -8 20 -9 9 19c-1,2 -3,6 -6,9 -3,3 -7,5 -10,7 -5,2 -10,3 -14,3 -5,-1 -9,-2 -13,-5 -3,-4 -6,-7 -8,-12 -3,-5 -4,-10 -3,-15 0,-4 1,-9 4,-13 2,-3 6,-5 10,-7 6,-3 11,-4 15,-3 4,1 8,4 11,8l-8 6c-2,-2 -4,-3 -7,-4 -2,0 -4,0 -7,1 -4,2 -7,5 -8,9 -1,3 0,8 2,13 3,6 6,10 10,11 3,2 7,2 11,0 2,-1 4,-2 5,-4 2,-1 3,-3 4,-5l-3 -6 -10 5zm26 -9l8 -5c2,2 5,4 7,5 2,0 5,0 8,-2 3,-1 4,-3 5,-5 1,-2 1,-4 0,-6 -1,-1 -1,-2 -2,-2 -1,-1 -3,-1 -5,0 -1,0 -4,0 -8,1 -5,2 -10,2 -13,1 -4,-1 -7,-3 -9,-7 -1,-2 -1,-5 -1,-8 0,-2 1,-5 3,-7 2,-3 4,-5 8,-7 5,-3 10,-4 14,-2 5,1 8,3 10,7l-9 6c-1,-3 -3,-4 -5,-4 -2,-1 -4,0 -6,1 -3,2 -5,3 -5,5 -1,1 -1,3 0,4 0,1 1,2 2,2 2,0 5,0 10,-1 5,-2 9,-2 12,-2 3,0 5,1 7,2 3,1 4,4 6,6 1,3 2,6 2,9 0,3 -1,6 -3,8 -2,3 -5,5 -9,7 -6,3 -11,4 -15,3 -5,-1 -9,-4 -12,-9zm90 -33l-9 6 -10 -8 -17 11 3 12 -9 6 -12 -55 9 -5 45 33zm-27 -8l-16 -12 5 20 11 -8z"/>
   <path class="fil8" d="M1128 1257l7 -11c1,1 1,1 2,2 2,1 4,3 5,3l1 0c7,0 13,-3 18,-7 6,-4 11,-7 18,-8l0 0c13,-2 21,4 30,10l0 0c5,3 10,7 16,8 8,-1 13,-2 17,-4 4,-2 7,-4 10,-8l0 0 1 0 0 0c8,-8 16,-10 23,-9 8,1 14,4 20,9l0 0 1 1c5,5 13,7 23,6 13,-1 28,-6 43,-13l5 12c-16,8 -33,13 -47,14 -14,1 -26,-1 -34,-9l0 -1 0 0c-4,-3 -8,-6 -12,-6 -4,-1 -8,1 -12,5l-1 1 0 0c-4,4 -8,7 -14,10 -6,3 -13,4 -23,5l-1 0c-9,-1 -16,-6 -22,-10l0 0c-7,-4 -14,-9 -21,-8 -4,1 -8,3 -12,6 -8,5 -16,10 -27,9 -6,0 -10,-3 -14,-6l0 -1z"/>
   <path class="fil8" d="M1109 1286l8 -11c1,0 2,1 3,2 2,2 5,3 7,3l0 0c8,1 15,-3 22,-7 6,-3 12,-7 19,-8l1 0c13,-1 23,4 32,10 6,4 12,7 19,8 9,-1 15,-2 20,-4 5,-2 8,-4 11,-7 8,-8 16,-10 24,-10 9,0 18,5 25,11 5,5 15,6 27,5 14,-1 31,-5 48,-13l5 13c-18,7 -36,13 -52,14 -15,1 -29,-2 -37,-9 -5,-4 -11,-8 -16,-8 -5,0 -10,2 -14,6 -5,5 -10,8 -16,11 -6,2 -14,4 -25,5l-1 0c-10,-2 -17,-6 -25,-10 -7,-5 -15,-9 -24,-8 -4,0 -9,3 -14,6 -9,5 -17,10 -30,9 -6,0 -10,-3 -14,-6 -1,-1 -2,-1 -3,-2z"/>
   <path class="fil8" d="M1087 1320l8 -12c3,2 5,3 8,5 2,2 5,3 8,3l1 0c10,1 18,-3 26,-7 7,-3 13,-7 21,-8l1 0c15,-1 25,4 36,10 7,3 14,7 23,8 10,-1 17,-2 23,-4 6,-2 10,-4 14,-8 8,-7 17,-9 26,-9 10,0 20,5 27,10 7,6 19,7 33,6 17,-1 36,-5 56,-13l5 13c-21,8 -42,13 -60,14 -18,1 -32,-2 -42,-9 -5,-4 -12,-8 -20,-8 -5,0 -11,2 -17,7 -5,4 -10,7 -17,10 -8,2 -16,4 -28,5l-1 0c-11,-2 -20,-6 -28,-10 -9,-5 -18,-9 -29,-8 -6,0 -11,3 -17,6 -10,5 -20,10 -33,9l0 0c-7,0 -11,-3 -16,-6 -2,-1 -4,-3 -8,-4z"/>
   <path class="fil8" d="M1066 1354l7 -12c4,1 7,3 10,5 3,2 6,3 10,3l0 0c12,1 21,-3 30,-7 8,-3 15,-7 23,-8l1 0c16,-1 28,5 39,10 8,4 17,7 26,8 11,0 20,-2 27,-4 6,-2 11,-4 15,-8 9,-7 19,-9 28,-9 11,0 22,5 30,10 8,6 21,7 37,6 18,-1 40,-5 62,-13l5 13c-23,8 -47,13 -66,14 -19,1 -35,-1 -46,-9 -6,-4 -14,-7 -22,-8 -7,0 -13,2 -20,7 -5,4 -11,8 -20,10 -7,2 -17,4 -30,5l-1 0c-12,-1 -21,-6 -30,-10 -10,-4 -21,-9 -33,-8 -7,1 -13,3 -19,6 -11,5 -22,10 -37,9l0 0c-7,0 -11,-3 -16,-6 -3,-1 -6,-3 -10,-4z"/>
   <path class="fil8" d="M1041 1392l8 -11c2,1 5,3 7,4 4,3 8,6 13,6l1 0c14,1 25,-5 36,-11 9,-4 18,-9 28,-10l1 -1c19,-1 34,6 48,14 10,5 20,10 31,12 14,-1 25,-3 33,-6 8,-3 14,-7 19,-11 11,-10 23,-14 34,-13 14,0 26,6 36,14 10,8 26,10 46,9 22,-2 49,-8 76,-19l5 13c-28,11 -57,18 -81,19 -23,2 -42,-1 -54,-11 -8,-7 -18,-12 -29,-12 -7,0 -16,2 -24,10 -7,5 -14,10 -24,14 -9,3 -21,5 -37,6l-1 0c-14,-1 -25,-7 -36,-13 -13,-7 -25,-13 -41,-12 -8,1 -16,5 -24,9 -13,7 -26,14 -44,12l0 0c-8,0 -14,-4 -19,-7 -3,-2 -5,-3 -8,-5z"/>
   <path class="fil8" d="M1015 1433l11 -17c2,0 4,0 5,0 14,-1 22,4 29,8 5,3 9,6 14,6l1 0c15,1 27,-5 39,-11 10,-5 19,-9 30,-11l0 0c21,-1 36,6 51,14 10,5 21,10 33,12 15,-1 27,-3 35,-6 9,-3 15,-7 21,-11 11,-10 23,-14 35,-13 15,0 28,6 38,14 10,8 28,10 49,9 24,-2 52,-8 81,-19l5 13c-30,11 -60,18 -85,19 -25,2 -45,-1 -58,-11 -8,-7 -19,-12 -30,-12 -9,0 -18,2 -27,10 -7,6 -14,10 -24,14 -10,3 -23,5 -39,6l-2 0c-14,-1 -26,-7 -38,-13 -14,-7 -27,-14 -44,-12 -8,1 -17,5 -25,9 -13,7 -27,14 -46,12l0 0c-9,0 -15,-4 -21,-7 -5,-4 -11,-8 -21,-7 -6,0 -12,2 -17,4z"/>
   <path class="fil8" d="M1974 1416l11 17c-5,-2 -11,-4 -17,-4 -10,-1 -16,3 -21,7 -6,3 -12,7 -21,7l0 0c-19,2 -33,-5 -46,-12 -8,-4 -17,-8 -25,-9 -17,-2 -30,5 -44,12 -12,6 -24,12 -38,13l-2 0c-16,-1 -29,-3 -39,-6 -10,-4 -17,-8 -24,-14 -9,-8 -18,-10 -27,-10 -11,0 -22,5 -30,12 -13,10 -33,13 -58,11 -25,-1 -55,-8 -85,-19l5 -13c29,11 57,17 81,19 21,1 39,-1 49,-9 10,-8 23,-14 38,-14 12,-1 24,3 35,13 6,4 12,8 21,11 8,3 20,5 35,6 12,-2 23,-7 33,-12 15,-8 30,-15 51,-14l0 0c11,2 20,6 30,11 12,6 24,12 39,11l1 0c5,0 9,-3 14,-6 7,-4 15,-9 29,-8 1,0 3,0 5,0z"/>
   <path class="fil8" d="M1951 1381l8 11c-3,2 -5,3 -8,5 -5,3 -11,7 -19,7l0 0c-18,2 -31,-5 -44,-12 -8,-4 -16,-8 -24,-9 -16,-1 -28,5 -41,12 -11,6 -22,12 -36,13l-1 0c-16,-1 -28,-3 -37,-6 -10,-4 -17,-9 -24,-14 -8,-8 -17,-10 -24,-10 -11,0 -21,5 -29,12 -12,10 -31,13 -54,11 -24,-1 -53,-8 -81,-19l5 -13c27,11 54,17 76,19 20,1 36,-1 46,-9 10,-8 22,-14 36,-14 11,-1 23,3 34,13 5,4 11,8 19,11 8,3 19,5 33,6 11,-2 21,-7 31,-12 14,-8 29,-15 48,-14l1 1c10,1 19,6 28,10 11,6 22,12 36,11l1 0c5,0 9,-3 13,-6 2,-1 5,-3 7,-4z"/>
   <path class="fil8" d="M1927 1342l7 12c-4,1 -7,3 -10,4 -5,3 -9,6 -16,6l0 0c-15,1 -26,-4 -37,-9 -6,-3 -12,-5 -19,-6 -12,-1 -23,4 -33,8 -9,4 -18,9 -30,10l-1 0c-13,-1 -23,-3 -30,-5 -9,-2 -15,-6 -20,-10 -7,-5 -13,-7 -20,-7 -8,1 -16,4 -22,8 -11,8 -27,10 -46,9 -19,-1 -43,-6 -66,-14l5 -13c22,8 44,12 62,13 16,1 29,0 37,-6 8,-5 19,-10 30,-10 9,0 19,2 28,9 4,4 9,6 15,8 7,2 16,4 27,4 9,-1 18,-4 26,-8 11,-5 23,-11 39,-10l1 0c8,1 15,5 23,8 9,4 18,8 30,7l0 0c4,0 7,-1 10,-3 3,-2 6,-4 10,-5z"/>
   <path class="fil8" d="M1905 1308l8 12c-4,1 -6,3 -8,4 -5,3 -9,6 -16,6l0 0c-13,1 -23,-4 -33,-9 -6,-3 -11,-6 -17,-6 -11,-1 -20,3 -29,8 -8,4 -17,8 -28,10l-1 0c-12,-1 -20,-3 -28,-5 -7,-3 -12,-6 -17,-10 -6,-5 -12,-7 -17,-7 -8,0 -15,4 -20,8 -10,7 -24,10 -42,9 -18,-1 -39,-6 -60,-14l5 -13c20,8 39,12 56,13 14,1 26,0 33,-6 7,-5 17,-10 27,-10 9,0 18,2 26,9 4,4 8,6 14,8 6,2 13,3 23,4 9,-1 16,-5 23,-8 11,-6 21,-11 36,-10l1 0c8,1 14,5 21,8 8,4 16,8 26,7l1 0c3,0 6,-1 8,-3 3,-2 5,-3 8,-5z"/>
   <path class="fil8" d="M1883 1275l8 11c-1,1 -2,1 -3,2 -4,3 -8,6 -14,6 -13,1 -21,-4 -30,-9 -5,-3 -10,-6 -14,-6 -9,-1 -17,3 -24,8 -8,4 -15,8 -25,10l-1 0c-11,-1 -19,-3 -25,-5 -6,-3 -11,-6 -16,-11 -4,-4 -9,-6 -14,-6 -5,0 -11,4 -16,8 -8,7 -22,10 -37,9 -16,-1 -34,-7 -52,-14l5 -13c17,8 34,12 48,13 12,1 22,0 27,-5 7,-6 16,-11 25,-11 8,0 16,2 24,10 3,3 6,5 11,7 5,2 11,3 20,4 7,-1 13,-4 19,-8 9,-6 19,-11 32,-10l1 0c7,1 13,5 19,8 7,4 14,8 22,7l0 0c2,0 5,-1 7,-3 1,-1 2,-2 3,-2z"/>
   <path class="fil8" d="M1637 1236c15,7 30,12 43,13 10,1 18,-1 23,-6 1,0 1,0 1,-1 6,-5 12,-8 20,-9 7,-1 15,1 23,9 0,0 1,0 1,0 3,4 6,6 10,8 4,2 9,3 17,4 6,-1 11,-5 16,-8l0 0c9,-6 17,-12 30,-10l0 0c7,1 12,4 18,8 5,4 11,7 18,7l1 0c1,0 3,-2 5,-3 1,-1 1,-1 2,-2l7 11 0 1c-4,3 -8,6 -14,6 -11,1 -19,-4 -27,-9 -4,-3 -8,-5 -12,-6 -7,-1 -14,4 -21,8l0 0c-6,4 -13,9 -22,10l-1 0c-10,-1 -17,-2 -23,-5 -6,-3 -10,-6 -14,-10l-1 -1c-4,-4 -8,-6 -12,-5 -4,0 -8,3 -12,6l0 1c-8,8 -20,10 -34,9 -14,-1 -31,-6 -47,-14l5 -12z"/>
   <ellipse class="fil3" cx="1500" cy="1182" rx="188" ry="257"/>
   <g>
    <path class="fil1" d="M1497 1028c-1,42 10,55 24,68 5,5 9,12 3,20 7,6 8,11 5,17 5,6 8,12 3,21 13,23 2,51 0,74 -1,19 -7,33 -20,41 0,21 0,43 0,64 0,21 -17,29 -31,10 -3,-8 0,-13 2,-20 2,-6 1,-14 1,-21 0,-19 3,-39 -2,-47 -1,-6 -3,-11 -3,-19 2,-4 3,-3 4,-1 6,7 27,11 29,-1 1,-7 -5,-17 -9,-22 -23,-26 -65,-120 -25,-140 2,-20 11,-32 19,-44z"/>
    <g>
     <g>
      <path class="fil8" d="M1553 996c8,6 15,14 21,21 44,51 62,117 60,179 -1,62 -21,120 -52,155 -4,4 -8,8 -12,12l-3 -4c4,-3 8,-7 11,-11 31,-34 51,-91 52,-152 1,-61 -16,-126 -59,-176 -6,-7 -13,-14 -21,-21l3 -3z"/>
      <g>
       <path class="fil3" d="M1605 1342c-5,0 -3,0 -17,0 -2,-5 -1,-3 -7,-16 -1,-5 9,-9 10,-3 6,-7 15,-1 12,7 7,0 7,11 2,12z"/>
       <path class="fil1" d="M1605 1343c-4,0 -4,0 -8,0 -3,0 -6,0 -9,0 0,0 0,0 -1,0 0,0 0,0 0,0 0,-2 -1,-3 -1,-4 -1,-2 -2,-4 -6,-13 0,0 0,0 0,0 0,0 0,0 0,0 0,-2 1,-5 3,-6 1,0 2,-1 3,-1 1,0 1,0 2,0 1,0 2,1 3,2 2,-1 4,-2 6,-2 1,0 3,1 4,1 1,1 2,2 3,3 1,2 1,4 0,6 2,1 3,2 4,3 1,1 1,2 2,3 0,2 0,3 -1,4 0,2 -2,3 -3,4 -1,0 -1,0 -1,0zm-8 -2c4,0 5,0 8,0 1,0 2,-1 3,-2 0,-1 0,-2 0,-3 0,-1 0,-2 -1,-3 -1,-1 -2,-2 -4,-2 0,0 0,0 0,0 0,0 0,-1 0,-1 0,-2 0,-4 -1,-6 0,-1 -1,-2 -2,-2 -1,-1 -2,-1 -3,-1 -2,0 -4,0 -6,2 0,0 0,1 0,1 -1,0 -1,-1 -1,-1 0,-1 -1,-2 -2,-2 -1,-1 -1,0 -2,0 -1,0 -1,0 -2,0 -1,1 -3,3 -2,5 4,8 4,10 5,12 1,1 1,2 2,3 3,0 5,0 8,0z"/>
       <path class="fil4" d="M1597 1326c-1,4 2,6 -1,15 4,0 9,-1 13,3 -6,1 -13,14 -26,5 -13,-9 -4,-19 -6,-26 8,2 7,8 8,11 5,-5 9,-5 12,-8z"/>
       <path class="fil1" d="M1598 1327c0,1 0,2 0,3 0,2 1,5 -1,10 1,0 1,0 2,0 3,0 7,0 11,3 0,0 0,1 0,1 0,0 0,0 0,0 0,0 0,0 0,0 -2,1 -4,2 -6,4 -6,4 -12,8 -22,2 0,0 0,0 0,0 -9,-6 -7,-14 -6,-20 0,-2 1,-5 0,-7 0,0 1,-1 1,-1 0,0 0,0 0,0 0,0 0,0 0,0 6,2 7,6 8,9 0,1 0,1 0,2 3,-3 6,-4 8,-5 2,-1 3,-1 4,-2 0,-1 1,0 1,0 0,0 0,0 0,1zm-1 3c-1,-1 -1,-1 -1,-2 0,0 -1,1 -2,1 -3,1 -5,2 -8,5 0,0 -1,0 -1,1 0,0 0,0 -1,-1 0,-1 0,-1 0,-3 -1,-2 -2,-5 -6,-7 0,2 0,4 -1,7 -1,5 -2,12 6,18 0,0 0,0 0,0 9,6 15,1 20,-3 2,-1 3,-2 5,-3 -3,-2 -6,-1 -9,-1 -1,0 -2,0 -3,0 0,0 0,0 0,0 0,0 -1,-1 0,-1 1,-6 1,-8 1,-11z"/>
      </g>
      <g>
       <path class="fil3" d="M1624 1305c-5,2 -3,1 -16,4 -4,-4 -2,-2 -11,-13 -2,-4 6,-11 9,-5 4,-8 14,-5 13,3 7,-1 9,9 5,11z"/>
       <path class="fil1" d="M1624 1306c-3,1 -4,1 -7,2 -3,1 -6,1 -9,2 0,0 -1,0 -1,0 0,0 0,0 0,0 -1,-1 -1,-2 -2,-3 -1,-2 -3,-3 -8,-10 0,0 0,0 0,-1 0,0 0,0 0,0 -1,-2 -1,-4 1,-6 1,-1 1,-1 2,-1 1,-1 2,-1 2,-1 2,0 3,0 4,1 1,-2 3,-3 4,-3 2,-1 3,0 5,0 1,0 2,1 3,2 1,1 2,3 2,6 2,-1 3,0 4,1 1,1 2,2 2,3 1,1 1,2 1,4 0,1 -1,3 -3,4 0,0 0,0 0,0zm-8 1c4,-1 4,-1 8,-2 1,-1 1,-2 1,-4 0,0 0,-1 0,-2 0,-1 -1,-2 -2,-3 -1,-1 -2,-1 -4,-1 0,0 0,0 0,0 0,0 0,0 0,-1 0,-2 -1,-4 -2,-5 -1,-1 -2,-1 -3,-2 -1,0 -2,0 -3,0 -2,1 -4,2 -5,4 0,0 0,0 0,0 -1,1 -1,0 -1,0 -1,-1 -2,-2 -3,-2 0,0 -1,1 -1,1 -1,0 -1,1 -2,1 -1,1 -2,3 -1,5 6,7 7,8 8,10 1,1 1,2 2,3 3,-1 6,-2 8,-2z"/>
       <path class="fil4" d="M1613 1292c-1,4 3,5 2,15 4,-1 8,-4 13,-1 -5,2 -9,17 -23,11 -15,-5 -9,-17 -12,-23 7,0 8,6 10,8 4,-5 7,-7 10,-10z"/>
       <path class="fil1" d="M1613 1292c0,2 1,3 1,4 1,2 2,4 2,10 0,-1 1,-1 1,-1 3,-1 7,-2 11,0 1,0 1,1 1,1 0,0 0,0 -1,0 0,0 0,0 0,0 -1,1 -3,3 -4,5 -4,5 -9,11 -20,7 0,0 0,0 0,0 -10,-4 -10,-11 -10,-17 -1,-2 -1,-5 -2,-6 0,-1 0,-1 1,-1 0,0 0,-1 0,-1 0,0 0,0 0,0 6,0 8,4 9,7 1,0 1,1 1,1 2,-3 4,-5 6,-6 1,-1 2,-2 3,-3 0,0 1,0 1,0 0,0 0,0 0,0zm0 4c0,0 -1,-1 -1,-2 -1,1 -1,1 -2,2 -2,2 -4,3 -6,7 0,0 0,0 -1,0 0,0 0,0 -1,0 0,-1 -1,-2 -1,-2 -1,-3 -3,-6 -7,-6 1,2 1,4 1,6 0,6 1,12 10,16 0,0 0,0 0,0 9,3 14,-2 18,-7 1,-2 2,-3 4,-4 -4,-1 -7,0 -9,1 -1,0 -2,0 -3,0 0,0 0,0 0,0 0,0 -1,0 0,0 0,-6 -1,-9 -2,-11z"/>
      </g>
      <g>
       <path class="fil3" d="M1634 1270c-4,1 -3,1 -15,5 -3,-4 -2,-3 -11,-12 -3,-4 5,-11 8,-6 3,-8 13,-6 13,2 6,-1 9,8 5,11z"/>
       <path class="fil1" d="M1635 1270c-4,2 -4,2 -7,3 -3,1 -6,2 -9,3 0,0 0,0 0,-1 0,0 0,0 0,0 -1,-1 -2,-2 -3,-2 -1,-2 -2,-3 -9,-10 0,0 0,0 0,0 0,0 0,0 0,0 -1,-2 0,-4 1,-6 1,-1 2,-1 2,-2 1,0 2,0 2,-1 1,0 3,1 3,2 2,-2 3,-4 5,-4 1,-1 3,-1 4,0 1,0 2,0 3,1 2,2 3,3 3,5 1,0 3,1 4,2 1,0 2,1 2,2 1,1 1,3 1,4 0,1 -1,3 -2,4 0,0 0,0 0,0zm-8 1c4,-1 4,-1 7,-2 1,-1 1,-2 1,-3 0,-1 0,-2 0,-3 -1,-1 -1,-2 -2,-2 -1,-1 -2,-1 -4,-1 0,0 0,0 0,0 0,0 -1,0 -1,-1 0,-2 0,-3 -2,-5 0,0 -1,-1 -2,-1 -2,0 -3,0 -4,0 -1,1 -3,2 -4,4 0,0 0,1 0,1 0,0 -1,0 -1,-1 -1,-1 -2,-1 -3,-1 0,0 -1,0 -1,0 -1,1 -1,1 -2,2 -1,1 -1,3 0,4 6,7 7,8 8,10 1,0 2,1 2,2 3,-1 6,-2 8,-3z"/>
       <path class="fil4" d="M1623 1258c0,3 3,4 3,13 3,-1 7,-3 13,-1 -6,2 -8,17 -22,13 -14,-4 -10,-16 -13,-22 7,0 8,5 10,7 3,-6 7,-7 9,-10z"/>
       <path class="fil1" d="M1623 1258c0,1 1,2 1,3 1,2 3,4 3,9 0,0 1,0 1,0 3,-1 6,-3 11,-1 0,0 0,0 0,1 0,0 0,0 0,0 0,0 0,0 0,0 -2,1 -3,3 -4,5 -4,5 -8,11 -18,9 0,-1 0,-1 0,-1 -11,-2 -11,-9 -12,-15 0,-2 -1,-5 -2,-6 0,-1 0,-1 0,-1 0,0 1,0 1,0 0,0 0,0 0,0 6,-1 8,2 9,5 0,0 1,1 1,1 2,-3 4,-5 5,-6 1,-1 2,-2 3,-3 0,-1 1,-1 1,-1 0,1 0,1 0,1zm0 4c0,-1 -1,-2 -1,-2 0,0 -1,1 -2,2 -2,1 -4,3 -5,7 0,0 0,0 0,0 -1,0 -1,0 -1,0 -1,-1 -2,-1 -2,-2 -1,-2 -3,-5 -7,-5 1,2 1,4 1,6 1,5 2,12 11,14 0,0 0,0 0,0 9,3 13,-3 17,-8 1,-2 2,-3 3,-4 -3,-1 -6,0 -8,1 -1,1 -2,1 -3,1 0,0 0,0 0,0 0,0 -1,0 -1,-1 0,-5 -1,-7 -2,-9z"/>
      </g>
      <g>
       <path class="fil3" d="M1642 1234c-4,2 -3,2 -14,6 -4,-3 -3,-2 -12,-11 -2,-4 4,-11 7,-6 3,-8 13,-6 13,2 6,-2 10,6 6,9z"/>
       <path class="fil1" d="M1642 1235c-3,1 -3,1 -6,3 -3,1 -5,2 -8,3 0,0 0,0 -1,0 0,0 0,0 0,0 -1,-1 -1,-2 -2,-3 -2,-1 -3,-2 -9,-8 0,0 0,0 0,0 0,0 0,0 0,0 -2,-2 -1,-5 0,-6 1,-1 1,-2 2,-2 1,-1 1,-1 2,-1 1,0 2,0 3,1 1,-2 3,-3 4,-4 1,0 3,-1 4,0 1,0 2,0 3,1 2,1 3,3 3,5 2,0 3,0 4,1 1,0 2,1 2,2 1,1 1,2 1,3 1,2 0,4 -1,5 0,0 0,0 -1,0zm-7 2c4,-2 4,-2 7,-3 1,-1 1,-2 1,-3 0,-1 0,-2 -1,-3 0,-1 -1,-2 -2,-2 -1,-1 -2,-1 -3,-1 0,0 0,0 0,0 -1,1 -1,0 -1,0 0,-2 -1,-4 -2,-5 -1,0 -2,-1 -3,-1 -1,0 -2,0 -3,0 -2,1 -3,2 -4,5 0,0 0,0 0,0 -1,0 -1,0 -1,0 -1,-1 -2,-2 -3,-2 0,0 -1,1 -1,1 -1,0 -1,1 -2,1 -1,2 -1,4 0,5 6,6 7,7 9,8 0,1 1,2 2,3 2,-1 5,-2 7,-3z"/>
       <path class="fil4" d="M1630 1224c0,3 4,4 4,13 3,-2 7,-5 12,-3 -5,3 -6,17 -20,14 -14,-3 -10,-15 -14,-20 7,-1 8,5 10,6 3,-6 6,-7 8,-10z"/>
       <path class="fil1" d="M1631 1224c0,1 0,2 1,3 1,1 2,4 3,9 0,-1 1,-1 1,-1 3,-1 6,-3 10,-2 1,1 1,1 1,1 0,0 0,1 0,1 0,0 0,0 0,0 -2,1 -3,2 -4,5 -3,5 -7,11 -17,9 0,0 0,0 0,0 -10,-2 -11,-9 -12,-14 -1,-3 -1,-5 -2,-6 -1,-1 -1,-1 0,-1 0,0 0,-1 0,-1 0,0 0,0 0,0 6,0 8,3 9,5 1,1 1,1 1,1 2,-3 4,-5 5,-6 1,-1 2,-2 3,-3 0,-1 0,-1 0,-1 1,0 1,1 1,1zm0 4c-1,-1 -1,-2 -1,-2 -1,0 -1,1 -2,2 -2,1 -3,3 -5,7 0,0 0,0 0,0 0,0 -1,0 -1,0 -1,-1 -1,-1 -2,-2 -1,-2 -3,-4 -7,-4 1,1 1,3 2,5 1,6 2,12 11,13 0,0 0,0 0,0 9,2 13,-3 16,-8 1,-2 2,-3 3,-5 -4,0 -6,1 -8,2 -1,1 -2,1 -2,1 0,0 -1,0 -1,0 0,0 0,0 0,0 -1,-5 -2,-8 -3,-9z"/>
      </g>
      <g>
       <path class="fil3" d="M1646 1198c-4,3 -3,2 -13,8 -4,-3 -2,-2 -13,-8 -3,-4 2,-11 6,-7 1,-8 11,-8 13,-1 5,-3 10,5 7,8z"/>
       <path class="fil1" d="M1646 1199c-2,1 -3,2 -6,4 -2,1 -4,2 -6,4 -1,0 -1,0 -1,0 0,0 0,0 0,0 -1,-1 -2,-2 -3,-2 -2,-1 -3,-2 -10,-7 0,0 0,0 0,0 0,0 0,0 0,0 -2,-1 -2,-4 -1,-6 1,-1 1,-1 2,-2 0,0 1,-1 1,-1 1,0 3,0 4,0 0,-2 1,-3 3,-4 1,-1 2,-1 3,-1 2,0 3,0 4,1 1,1 3,2 3,4 2,-1 3,-1 4,0 1,0 2,1 3,2 1,1 1,2 1,3 1,2 1,3 0,5 -1,0 -1,0 -1,0zm-6 2c3,-2 3,-2 6,-3 0,-1 0,-2 0,-4 0,-1 -1,-1 -1,-2 -1,-1 -1,-1 -2,-2 -1,0 -3,0 -4,0 0,0 0,1 0,1 0,0 -1,-1 -1,-1 0,-2 -1,-3 -3,-4 -1,0 -2,-1 -3,-1 -1,0 -2,1 -3,1 -1,1 -2,3 -2,5 0,0 -1,0 -1,0 0,0 0,0 -1,0 0,-1 -1,-1 -2,-1 -1,1 -1,1 -1,1 -1,1 -1,1 -2,2 0,1 0,3 1,4 7,5 8,6 10,7 0,0 1,1 2,1 2,-1 5,-2 7,-4z"/>
       <path class="fil4" d="M1633 1190c0,3 4,3 6,12 3,-2 5,-6 11,-5 -4,4 -3,17 -17,17 -14,0 -12,-13 -17,-17 7,-2 9,3 11,5 1,-7 5,-9 6,-12z"/>
       <path class="fil1" d="M1633 1190c1,1 1,2 2,3 1,1 3,3 4,8 1,-1 1,-1 1,-1 3,-2 5,-4 10,-4 0,1 0,1 0,1 0,0 0,1 0,1 0,0 0,0 0,0 -1,1 -2,3 -3,5 -2,5 -4,12 -14,12 0,0 0,0 0,0 -10,-1 -12,-7 -14,-12 -1,-2 -2,-4 -3,-5 -1,0 -1,-1 0,-1 0,0 0,0 0,0 0,0 0,0 0,0 5,-2 8,0 10,2 0,1 0,1 1,1 1,-3 2,-5 3,-7 1,-1 2,-2 2,-3 0,0 1,-1 1,-1 0,1 0,1 0,1zm1 3c-1,0 -1,-1 -1,-1 -1,1 -1,1 -2,2 -1,2 -2,4 -3,8 0,0 0,0 0,0 -1,0 -1,0 -1,0 -1,0 -2,-1 -2,-2 -2,-1 -4,-3 -8,-2 1,1 2,3 3,5 2,5 4,10 13,10 0,0 0,0 0,0 9,1 11,-6 13,-11 1,-1 2,-3 2,-4 -3,0 -5,1 -7,3 -1,0 -1,1 -2,1 0,0 0,0 0,0 0,0 -1,0 -1,0 -1,-5 -3,-7 -4,-9z"/>
      </g>
      <g>
       <path class="fil3" d="M1644 1166c-4,2 -2,1 -12,8 -4,-3 -3,-2 -13,-9 -3,-3 2,-10 6,-6 1,-8 10,-8 12,-1 5,-3 10,4 7,8z"/>
       <path class="fil1" d="M1644 1166c-2,2 -2,2 -5,4 -3,1 -5,3 -7,4 0,0 0,0 -1,0 0,0 0,0 0,0 -1,-1 -2,-1 -2,-2 -2,-1 -3,-2 -10,-6 0,0 0,0 0,0 0,0 0,0 0,0 -2,-2 -2,-4 -1,-6 0,-1 1,-1 1,-2 1,0 1,-1 2,-1 1,0 2,0 3,0 1,-2 2,-3 3,-4 1,-1 3,-1 4,-1 1,0 2,0 3,1 2,1 3,2 4,4 1,-1 2,-1 3,0 1,0 2,1 3,2 1,1 1,2 1,3 1,1 1,3 0,4 0,0 0,0 -1,0zm-6 3c3,-2 3,-2 6,-4 0,-1 1,-2 0,-3 0,-1 0,-2 -1,-2 -1,-1 -1,-2 -2,-2 -1,0 -2,0 -4,0 0,0 0,0 0,0 0,0 0,0 0,0 -1,-2 -2,-3 -3,-4 -1,-1 -2,-1 -3,-1 -1,0 -2,1 -3,1 -1,1 -2,2 -3,5 0,0 0,0 0,0 0,0 -1,0 -1,0 -1,-1 -2,-1 -2,-1 -1,0 -1,1 -2,1 0,1 0,1 -1,2 0,1 -1,3 0,4 7,4 9,5 10,6 1,1 2,1 3,2 2,-1 4,-3 6,-4z"/>
       <path class="fil4" d="M1631 1158c1,3 4,3 6,11 3,-2 6,-5 11,-4 -4,3 -3,16 -17,16 -13,0 -12,-12 -16,-16 6,-2 8,3 11,4 1,-6 4,-8 5,-11z"/>
       <path class="fil1" d="M1632 1158c0,1 1,1 1,2 2,2 3,4 5,8 0,0 0,0 1,-1 2,-1 5,-4 9,-3 0,0 0,0 0,1 0,0 0,0 0,0 0,0 0,0 0,0 -1,1 -2,3 -2,5 -2,6 -5,12 -15,12 0,0 0,0 0,0 -9,0 -12,-6 -14,-11 0,-2 -1,-4 -2,-6 -1,0 -1,0 -1,0 1,-1 1,-1 1,-1 0,0 0,0 0,0 5,-1 7,1 9,3 1,0 1,1 1,1 1,-3 3,-5 4,-7 0,-1 1,-2 1,-3 1,-1 1,-1 1,-1 0,0 1,1 1,1zm0 3c0,0 -1,-1 -1,-1 0,0 -1,1 -1,2 -1,2 -3,4 -4,7 0,0 0,0 0,0 0,1 0,1 -1,1 0,-1 -1,-1 -1,-2 -2,-2 -4,-4 -8,-3 1,2 2,3 3,5 1,5 4,10 12,11 0,0 0,0 0,0 9,0 12,-6 13,-11 1,-2 2,-4 2,-5 -3,0 -5,2 -7,3 0,1 -1,1 -1,2 -1,0 -1,0 -1,0 0,0 0,0 0,-1 -2,-4 -3,-6 -5,-8z"/>
      </g>
      <g>
       <path class="fil3" d="M1640 1130c-4,3 -2,2 -10,10 -5,-2 -3,-1 -14,-5 -4,-3 -1,-11 4,-8 -1,-8 8,-10 11,-3 4,-4 11,2 9,6z"/>
       <path class="fil1" d="M1640 1130c-2,3 -2,3 -5,5 -1,2 -3,4 -5,5 0,1 0,1 -1,1 0,0 0,0 0,0 -1,-1 -2,-1 -3,-2 -1,0 -3,-1 -10,-4 -1,0 -1,0 -1,0 0,0 0,0 0,0 -1,-1 -2,-3 -1,-5 0,-1 0,-2 1,-2 0,-1 0,-1 1,-2 1,0 2,0 3,0 0,-2 1,-4 2,-5 1,-1 2,-1 3,-1 1,-1 2,-1 3,0 2,0 3,1 5,3 1,-1 2,-1 3,-1 1,0 2,1 3,1 1,1 2,2 2,3 1,1 1,3 0,4 0,0 0,0 0,0zm-5 4c2,-2 2,-2 4,-5 1,-1 1,-2 0,-3 0,0 -1,-1 -2,-2 0,0 -1,-1 -2,-1 -1,0 -2,0 -3,1 0,0 0,0 0,0 -1,0 -1,0 -1,0 -1,-2 -2,-3 -4,-3 -1,0 -2,0 -3,0 -1,0 -1,1 -2,1 -1,1 -2,3 -2,5 0,0 0,0 0,1 0,0 -1,0 -1,0 -1,-1 -2,-1 -2,-1 -1,1 -1,1 -1,2 -1,0 -1,1 -1,1 0,2 0,3 1,4 7,3 9,4 11,4 1,1 1,1 2,1 2,-1 4,-3 6,-5z"/>
       <path class="fil4" d="M1626 1125c1,3 4,2 8,10 2,-3 4,-6 9,-7 -3,4 1,17 -12,19 -13,3 -14,-9 -19,-12 5,-3 8,1 11,2 0,-6 2,-9 3,-12z"/>
       <path class="fil1" d="M1626 1125c1,1 1,1 2,2 2,1 4,3 6,6 0,0 0,0 1,0 2,-3 4,-5 8,-5 0,-1 1,0 1,0 0,0 0,0 -1,1 0,0 0,0 0,0 0,1 -1,3 -1,5 -1,5 -2,12 -11,14 0,0 0,0 0,0 -9,2 -13,-3 -16,-8 -1,-2 -2,-3 -4,-4 0,0 0,-1 0,-1 0,0 0,0 0,0 0,0 0,0 0,0 5,-3 8,-1 10,0 1,1 1,1 1,1 0,-3 1,-6 2,-7 0,-2 1,-3 1,-4 0,0 0,-1 1,0 0,0 0,0 0,0zm2 3c-1,0 -2,-1 -2,-1 0,0 -1,1 -1,2 -1,2 -2,4 -2,8 0,0 0,0 0,0 0,1 0,1 0,1 -1,-1 -2,-1 -2,-2 -2,-1 -5,-2 -8,-1 1,1 2,3 3,5 3,4 6,8 15,7 0,0 0,0 0,0 8,-2 9,-8 10,-13 0,-2 0,-4 1,-5 -3,1 -5,3 -6,4 -1,1 -1,2 -2,2 0,0 0,0 0,0 0,0 -1,0 -1,0 -2,-4 -4,-6 -5,-7z"/>
      </g>
      <g>
       <path class="fil3" d="M1631 1098c-3,4 -2,3 -10,11 -4,-2 -3,-1 -14,-5 -3,-2 0,-10 4,-8 -1,-7 8,-9 11,-3 4,-4 11,2 9,5z"/>
       <path class="fil1" d="M1631 1099c-2,2 -2,2 -4,5 -2,2 -4,3 -5,5 -1,0 -1,0 -1,0 0,0 0,0 0,0 -1,0 -2,0 -3,-1 -2,0 -3,-1 -11,-3 0,0 0,0 0,0 0,0 0,0 0,0 -2,-1 -2,-4 -2,-6 0,0 1,-1 1,-2 0,0 1,-1 1,-1 1,-1 2,-1 3,-1 0,-2 1,-3 2,-4 1,-1 2,-2 3,-2 1,-1 2,-1 4,0 1,0 3,1 4,3 1,-1 2,-1 3,-1 1,0 2,0 3,1 1,1 2,2 2,2 1,2 1,3 0,5 0,0 0,0 0,0zm-5 4c2,-3 2,-3 4,-5 1,-1 1,-2 0,-3 0,-1 -1,-1 -2,-2 0,0 -1,-1 -2,-1 -1,0 -2,0 -3,1 0,0 0,0 0,0 -1,0 -1,0 -1,0 -1,-2 -2,-3 -4,-3 -1,0 -2,0 -3,0 0,0 -1,1 -2,2 -1,1 -2,2 -1,4 0,1 0,1 -1,1 0,0 0,0 0,0 -1,-1 -2,-1 -3,0 0,0 -1,1 -1,1 0,0 0,1 -1,2 0,1 0,3 2,4 7,2 9,3 10,3 1,0 2,1 3,1 2,-2 3,-3 5,-5z"/>
       <path class="fil4" d="M1617 1094c1,3 4,2 8,9 2,-2 4,-6 9,-6 -3,4 1,16 -11,19 -13,3 -14,-9 -19,-11 5,-4 8,0 10,1 0,-6 3,-9 3,-12z"/>
       <path class="fil1" d="M1617 1094c1,1 2,1 2,2 2,1 4,2 6,6 0,0 1,0 1,-1 2,-2 4,-4 8,-5 0,0 1,0 1,1 0,0 0,0 0,0 0,0 0,0 0,0 -1,1 -2,3 -2,6 0,5 -1,11 -10,14 0,0 0,0 0,0 -9,2 -13,-3 -16,-7 -1,-2 -2,-4 -4,-5 0,0 0,0 0,-1 0,0 0,0 0,0 0,0 0,0 0,0 5,-3 7,-1 10,0 0,1 1,1 1,1 0,-3 1,-5 1,-7 1,-2 1,-3 1,-4 0,0 1,0 1,0 0,0 0,0 0,0zm2 3c-1,0 -1,-1 -2,-1 0,1 0,1 -1,2 0,2 -1,4 -1,8 0,0 0,0 0,0 0,0 0,1 -1,1 0,-1 -1,-1 -2,-1 -2,-2 -4,-3 -7,-1 1,1 2,2 3,4 3,4 6,8 14,6 0,0 0,0 0,0 9,-2 9,-8 10,-13 0,-1 0,-3 1,-4 -3,0 -5,2 -6,4 -1,1 -1,1 -1,2 0,0 0,0 -1,0 0,0 0,0 0,0 -3,-5 -5,-6 -6,-7z"/>
      </g>
      <g>
       <path class="fil3" d="M1616 1066c-2,4 -2,2 -7,12 -5,0 -3,0 -14,-1 -4,-2 -3,-10 1,-8 -2,-8 6,-12 10,-7 3,-4 11,0 10,4z"/>
       <path class="fil1" d="M1616 1066c-1,3 -1,3 -3,6 -1,2 -2,4 -3,6 -1,0 -1,1 -1,1 0,0 0,0 0,0 -2,-1 -2,-1 -3,-1 -2,0 -4,0 -11,-1 0,0 0,0 0,0 0,0 0,0 0,0 -2,0 -3,-2 -3,-4 0,-1 0,-2 0,-2 0,-1 0,-2 1,-2 0,-1 1,-1 2,-1 0,-2 0,-4 1,-5 1,-1 1,-2 2,-3 1,0 3,-1 4,-1 1,0 3,1 4,2 1,-1 2,-1 4,-1 1,-1 2,0 3,0 1,0 1,1 2,2 1,1 2,2 1,4 0,0 0,0 0,0zm-4 5c2,-3 2,-3 3,-6 0,-1 0,-2 -1,-2 0,-1 -1,-1 -2,-2 -1,0 -1,0 -2,0 -1,0 -2,0 -3,2 0,0 0,0 0,0 0,0 -1,0 -1,0 -1,-2 -3,-2 -4,-2 -1,0 -2,0 -3,0 -1,1 -1,1 -2,2 -1,2 -1,3 0,5 0,0 0,1 0,1 0,0 -1,0 -1,0 -1,0 -2,0 -2,1 -1,0 -1,0 -1,1 0,0 0,1 0,2 0,1 0,3 2,3 8,1 9,1 11,1 1,0 1,0 3,0 1,-2 2,-4 3,-6z"/>
       <path class="fil4" d="M1601 1065c2,2 5,1 10,7 2,-3 3,-7 7,-9 -1,5 5,16 -6,22 -11,5 -15,-6 -21,-7 4,-4 8,-1 11,-1 -2,-6 0,-9 -1,-12z"/>
       <path class="fil1" d="M1602 1065c1,0 1,1 2,1 2,1 4,2 7,5 1,-1 1,-1 1,-1 1,-3 2,-6 6,-7 1,0 1,0 1,0 0,0 0,0 0,1 0,0 0,0 0,0 -1,1 0,3 0,5 1,5 2,12 -7,16 0,0 0,0 0,0 -8,4 -12,0 -16,-3 -2,-1 -3,-3 -5,-3 0,0 -1,-1 0,-1 0,0 0,0 0,0 0,0 0,0 0,0 3,-4 6,-3 9,-2 0,0 1,0 1,0 -1,-3 0,-5 0,-7 0,-2 0,-3 0,-4 0,0 0,0 0,-1 1,0 1,1 1,1zm2 2c-1,0 -1,0 -2,-1 0,1 0,2 0,3 0,2 0,4 0,8 1,0 1,0 1,0 0,0 -1,0 -1,0 -1,0 -2,0 -2,0 -2,-1 -5,-1 -8,1 2,1 3,2 5,3 3,3 7,7 15,3 0,0 0,0 0,0 7,-4 6,-10 6,-15 0,-2 -1,-3 0,-5 -3,2 -4,4 -5,6 0,1 -1,1 -1,2 0,0 0,0 0,0 0,0 -1,0 -1,0 -3,-3 -5,-4 -7,-5z"/>
      </g>
      <g>
       <path class="fil3" d="M1598 1036c-1,5 0,3 -3,14 -5,1 -3,0 -14,3 -4,-1 -6,-9 -1,-9 -4,-6 2,-12 8,-8 2,-6 10,-4 10,0z"/>
       <path class="fil1" d="M1599 1036c-1,3 -1,4 -2,7 0,2 -1,5 -1,7 0,0 -1,0 -1,0 0,0 0,0 0,0 -1,1 -2,1 -3,1 -2,0 -3,1 -11,2 0,0 0,0 0,0 0,0 0,0 0,0 -2,0 -3,-2 -4,-4 0,0 0,-1 0,-2 0,0 0,-1 0,-1 0,-1 1,-2 2,-2 -1,-2 -1,-4 0,-5 0,-1 0,-2 1,-3 1,-1 2,-2 3,-2 2,0 3,0 5,1 1,-2 1,-2 3,-3 1,0 2,0 3,0 1,0 2,0 2,1 2,1 3,2 3,3 0,0 0,0 0,0zm-3 6c1,-3 1,-3 2,-6 0,-1 -1,-2 -2,-2 -1,-1 -2,-1 -2,-1 -1,0 -2,0 -3,0 -1,1 -2,1 -2,3 0,0 0,0 0,0 0,0 -1,0 -1,0 -2,-1 -3,-1 -5,-1 0,1 -1,1 -2,2 -1,0 -1,1 -1,2 -1,2 0,3 1,5 0,0 0,0 0,0 0,1 0,1 -1,1 -1,0 -2,0 -2,1 0,0 0,1 0,1 0,1 0,2 0,2 1,2 2,3 3,3 8,-2 9,-2 11,-2 1,0 1,-1 3,-1 0,-2 1,-4 1,-7z"/>
       <path class="fil4" d="M1584 1040c3,1 5,-1 12,3 0,-3 0,-7 4,-10 0,5 9,14 0,22 -10,9 -16,0 -22,0 3,-6 8,-4 10,-4 -3,-5 -2,-9 -4,-11z"/>
       <path class="fil1" d="M1585 1039c0,1 1,1 2,1 2,0 4,0 8,2 0,0 0,-1 1,-1 0,-3 0,-6 4,-8 0,0 0,0 1,0 0,0 0,0 0,0 0,0 0,0 0,0 0,2 0,4 1,6 2,4 5,10 -2,17 0,0 0,0 0,0 -6,6 -12,3 -16,1 -2,-1 -4,-2 -6,-1 0,0 -1,-1 -1,-1 0,0 0,0 1,0 0,0 0,0 0,0 2,-5 5,-5 8,-5 0,0 1,0 1,0 -2,-3 -2,-5 -2,-7 -1,-1 -1,-2 -1,-3 0,0 0,-1 0,-1 0,0 0,0 1,0zm2 2c0,0 -1,0 -2,0 1,0 1,1 1,2 0,2 1,4 3,7 0,0 0,0 0,1 0,0 -1,0 -1,0 -1,0 -1,0 -2,0 -2,0 -5,0 -7,3 2,1 3,1 5,2 4,2 9,4 15,-1 0,0 0,0 0,0 6,-6 4,-11 2,-16 -1,-2 -1,-3 -1,-4 -3,2 -3,4 -3,6 0,1 -1,2 -1,2 0,0 0,0 0,1 0,0 0,0 -1,0 -4,-3 -6,-3 -8,-3z"/>
      </g>
      <g>
       <path class="fil3" d="M1559 986c-1,4 0,2 -2,13 -5,1 -3,1 -14,4 -4,0 -6,-9 -1,-9 -5,-6 1,-12 7,-9 2,-5 10,-4 10,1z"/>
       <path class="fil8" d="M1560 986c-1,3 -1,3 -1,6l-2 7c0,0 0,1 0,1l0 0c-2,0 -2,0 -3,0 -2,1 -3,1 -11,3 0,0 0,0 0,0l0 0c-2,0 -4,-1 -4,-3 -1,-1 -1,-2 -1,-2 0,-1 0,-2 1,-2 0,-1 1,-2 2,-2 -1,-2 -2,-4 -1,-5 0,-1 0,-2 1,-3 1,-1 2,-2 3,-2 1,0 3,0 5,0 0,-1 1,-2 2,-2 1,-1 2,-1 3,-1 1,0 2,1 3,1 2,1 3,2 3,3 0,1 0,1 0,1zm-3 6c1,-3 1,-4 2,-7 -1,-1 -1,-1 -2,-2 -1,0 -2,0 -3,-1 0,0 -1,1 -2,1 -1,0 -2,1 -2,2 0,0 0,0 0,1 0,0 -1,0 -1,0 -2,-1 -3,-1 -5,-1 0,1 -1,1 -2,2 0,0 -1,1 -1,2 0,2 0,3 1,5 0,0 0,0 0,0 0,1 0,1 0,1 -1,0 -2,1 -2,1 -1,1 -1,1 -1,2 0,0 1,1 1,1 0,2 1,3 3,3 7,-2 9,-2 11,-3 0,0 1,0 2,0l1 -7z"/>
       <path class="fil4" d="M1546 990c2,1 4,-1 11,3 1,-3 0,-8 4,-11 0,6 9,13 1,22 -9,9 -16,1 -22,1 3,-6 7,-4 10,-5 -4,-4 -3,-8 -4,-10z"/>
       <path class="fil8" d="M1546 989c1,0 2,0 3,1 1,0 4,0 8,2 0,-1 0,-1 0,-2 0,-2 0,-5 3,-8 1,0 1,0 1,0 0,0 0,0 0,0l0 0c0,2 1,4 2,6 3,4 6,10 -1,17l0 0c-6,6 -12,4 -16,2 -2,-1 -4,-1 -6,-1 0,0 0,-1 -1,-1 0,0 0,0 1,0l0 0c2,-5 5,-5 8,-5 0,0 0,0 1,0 -2,-3 -2,-5 -3,-7 0,-1 0,-2 -1,-3 0,-1 0,-1 0,-1 0,0 1,0 1,0zm3 2c-1,0 -2,0 -2,0 0,0 0,1 0,2 1,2 1,4 3,7 0,0 0,0 0,0 0,1 0,1 0,1 -1,0 -1,0 -2,0 -2,0 -5,0 -7,3 2,1 3,1 5,2 4,2 9,4 15,-2l0 0c6,-6 3,-12 1,-16 -1,-1 -1,-3 -2,-4 -2,2 -2,4 -2,7 0,0 0,1 0,2 0,0 0,0 0,0 -1,0 -1,0 -1,0 -4,-2 -7,-2 -8,-2z"/>
      </g>
      <g>
       <path class="fil3" d="M1577 1375c-5,-2 -3,-1 -17,-4 -1,-6 -1,-4 -4,-18 0,-5 10,-7 10,-1 8,-6 16,2 12,10 7,1 5,12 -1,13z"/>
       <path class="fil8" d="M1577 1375c-4,0 -4,0 -8,-1l-9 -2c-1,0 -1,0 -1,-1l0 0c0,-1 -1,-2 -1,-3 0,-3 -1,-5 -3,-14 0,0 0,0 0,0l0 0c0,-3 2,-5 4,-6 1,0 2,-1 3,-1 1,0 2,0 2,1 2,0 2,1 3,3 2,-2 4,-2 6,-2 2,1 3,1 4,2 1,1 2,2 2,4 1,2 1,4 0,6 2,1 3,2 3,3 1,2 1,3 1,4 0,2 0,3 -1,4 -1,2 -3,3 -4,3 -1,0 -1,0 -1,0zm-8 -3c5,1 5,1 9,2 1,0 2,-1 3,-3 0,-1 0,-2 0,-3 1,-1 0,-2 0,-3 -1,-1 -2,-2 -3,-3 0,0 0,0 0,0 -1,0 -1,0 -1,-1 1,-2 1,-4 1,-6 0,-1 -1,-2 -2,-3 -1,0 -2,-1 -3,-1 -2,0 -4,0 -6,2 -1,0 -1,0 -1,0 0,0 -1,-1 -1,-1 0,-2 0,-2 -1,-3 -1,0 -1,0 -2,0 -1,0 -2,0 -2,0 -2,1 -4,2 -4,4 3,10 3,12 4,14 0,1 0,2 1,4l8 1z"/>
       <path class="fil4" d="M1572 1357c-1,3 1,6 -4,15 4,0 10,0 13,5 -6,0 -16,12 -28,1 -11,-12 0,-21 -1,-28 8,3 5,9 6,12 7,-4 11,-3 14,-5z"/>
       <path class="fil8" d="M1573 1357c-1,1 -1,2 -1,4 0,2 0,5 -2,10 0,0 1,0 1,0 4,1 8,1 11,5 0,0 0,1 0,1 0,0 0,0 -1,0l0 0c-1,0 -4,2 -6,3 -6,3 -14,6 -22,-2l0 0c-9,-8 -6,-15 -3,-21 1,-3 2,-5 2,-7 -1,-1 0,-1 0,-1 0,0 1,0 1,0l0 0c6,3 6,7 6,10 0,1 0,1 0,2 3,-2 6,-3 9,-3 1,-1 3,-1 4,-2 0,0 1,0 1,0 0,1 0,1 0,1zm-2 4c0,-1 0,-2 0,-3 -1,1 -2,1 -3,1 -3,1 -6,1 -9,4 0,0 0,0 0,0 -1,0 -1,0 -1,-1 -1,0 -1,-1 -1,-3 0,-2 0,-6 -4,-8 0,2 -1,4 -2,6 -2,6 -5,13 3,20l0 0c8,8 14,4 20,1 2,-1 4,-2 6,-2 -3,-3 -6,-3 -9,-3 -1,0 -2,0 -3,-1 0,0 0,0 0,0 0,0 0,0 0,-1 3,-5 3,-8 3,-10z"/>
      </g>
      <g>
       <path class="fil3" d="M1582 1009c-1,5 -1,3 -3,14 -4,1 -3,0 -13,3 -5,0 -6,-8 -2,-8 -4,-6 2,-12 8,-9 1,-5 9,-4 10,0z"/>
       <path class="fil8" d="M1583 1009c-1,3 -1,4 -2,7l-1 7c0,0 0,0 0,0l0 0c-2,1 -3,1 -3,1 -2,1 -4,1 -11,3 0,0 0,0 0,0l0 0c-2,0 -4,-2 -5,-4 0,0 0,-1 0,-2 0,0 0,-1 0,-2 1,0 1,-1 2,-1 -1,-2 -1,-4 -1,-5 1,-1 1,-3 2,-3 1,-1 2,-2 3,-2 1,-1 3,-1 5,0 0,-1 1,-2 2,-3 1,0 2,0 3,0 1,0 2,0 3,1 1,1 2,2 3,3 0,0 0,0 0,0zm-3 6c1,-3 1,-3 1,-6 0,-1 -1,-2 -2,-2 0,-1 -1,-1 -2,-1 -1,0 -2,0 -2,1 -1,0 -2,1 -2,2 0,0 -1,0 -1,0 0,1 0,1 0,0 -2,0 -4,0 -5,0 -1,0 -2,1 -2,1 -1,1 -1,2 -1,3 -1,1 0,3 1,5 0,0 0,0 0,0 0,0 0,1 -1,1 -1,0 -1,0 -2,1 0,0 0,1 0,1 0,1 0,2 0,2 1,1 2,3 4,3 7,-2 9,-3 10,-3 1,0 2,0 3,-1l1 -7z"/>
       <path class="fil4" d="M1568 1013c3,2 5,0 12,3 0,-3 0,-7 4,-10 -1,5 9,13 0,22 -8,9 -16,0 -21,1 2,-6 7,-4 9,-5 -3,-5 -2,-8 -4,-11z"/>
       <path class="fil8" d="M1568 1013c1,0 2,0 3,0 2,0 4,0 8,2 0,0 0,0 0,-1 1,-3 1,-6 4,-8 0,-1 1,0 1,0 0,0 0,0 0,0l0 0c0,2 1,3 2,5 2,5 5,11 -1,17l0 0c-7,7 -12,5 -17,3 -2,-1 -4,-2 -5,-2 0,0 -1,0 -1,0 0,0 0,0 0,0l0 0c2,-5 6,-5 8,-5 1,0 1,0 1,0 -1,-3 -2,-5 -2,-7 -1,-1 -1,-3 -1,-3 0,-1 0,-1 0,-1 0,0 0,0 0,0zm3 1c0,0 -1,0 -2,0 1,1 1,2 1,3 0,2 1,4 3,7 0,0 0,0 0,0 0,0 0,1 0,1 -1,0 -2,0 -3,0 -2,0 -4,0 -6,3 1,0 3,1 5,2 4,1 9,3 15,-2l0 0c6,-6 3,-12 1,-16 -1,-2 -2,-3 -2,-5 -2,3 -2,5 -2,7 0,1 -1,2 -1,2 0,0 0,0 0,1 0,0 0,0 0,0 -5,-2 -7,-2 -9,-3z"/>
      </g>
     </g>
     <g>
      <path class="fil8" d="M1447 996c-8,6 -15,14 -21,21 -44,51 -62,117 -60,179 1,62 21,120 52,155 4,4 8,8 12,12l3 -4c-4,-3 -8,-7 -11,-11 -31,-34 -51,-91 -52,-152 -1,-61 16,-126 59,-176 6,-7 13,-14 21,-21l-3 -3z"/>
      <g>
       <path class="fil3" d="M1395 1342c5,0 3,0 17,0 2,-5 1,-3 7,-16 1,-5 -9,-9 -10,-3 -6,-7 -15,-1 -12,7 -7,0 -7,11 -2,12z"/>
       <path class="fil1" d="M1395 1343c4,0 4,0 8,0 3,0 6,0 9,0 0,0 0,0 1,0 0,0 0,0 0,0 0,-2 1,-3 1,-4 1,-2 2,-4 6,-13 0,0 0,0 0,0 0,0 0,0 0,0 0,-2 -1,-5 -3,-6 -1,0 -2,-1 -3,-1 -1,0 -1,0 -2,0 -1,0 -2,1 -3,2 -2,-1 -4,-2 -6,-2 -1,0 -3,1 -4,1 -1,1 -2,2 -3,3 -1,2 -1,4 0,6 -2,1 -3,2 -4,3 -1,1 -1,2 -2,3 0,2 0,3 1,4 0,2 2,3 3,4 1,0 1,0 1,0zm8 -2c-4,0 -5,0 -8,0 -1,0 -2,-1 -3,-2 0,-1 0,-2 0,-3 0,-1 0,-2 1,-3 1,-1 2,-2 4,-2 0,0 0,0 0,0 0,0 0,-1 0,-1 0,-2 0,-4 1,-6 0,-1 1,-2 2,-2 1,-1 2,-1 3,-1 2,0 4,0 6,2 0,0 0,1 0,1 1,0 1,-1 1,-1 0,-1 1,-2 2,-2 1,-1 1,0 2,0 1,0 1,0 2,0 1,1 3,3 2,5 -4,8 -4,10 -5,12 -1,1 -1,2 -2,3 -3,0 -5,0 -8,0z"/>
       <path class="fil4" d="M1403 1326c1,4 -2,6 1,15 -4,0 -9,-1 -13,3 6,1 13,14 26,5 13,-9 4,-19 6,-26 -8,2 -7,8 -8,11 -5,-5 -9,-5 -12,-8z"/>
       <path class="fil1" d="M1402 1327c0,1 0,2 0,3 0,2 -1,5 1,10 -1,0 -1,0 -2,0 -3,0 -7,0 -11,3 0,0 0,1 0,1 0,0 0,0 0,0 0,0 0,0 0,0 2,1 4,2 6,4 6,4 12,8 22,2 0,0 0,0 0,0 9,-6 7,-14 6,-20 0,-2 -1,-5 0,-7 0,0 -1,-1 -1,-1 0,0 0,0 0,0 0,0 0,0 0,0 -6,2 -7,6 -8,9 0,1 0,1 0,2 -3,-3 -6,-4 -8,-5 -2,-1 -3,-1 -4,-2 0,-1 -1,0 -1,0 0,0 0,0 0,1zm1 3c1,-1 1,-1 1,-2 0,0 1,1 2,1 3,1 5,2 8,5 0,0 1,0 1,1 0,0 0,0 1,-1 0,-1 0,-1 0,-3 1,-2 2,-5 6,-7 0,2 0,4 1,7 1,5 2,12 -6,18 0,0 0,0 0,0 -9,6 -15,1 -20,-3 -2,-1 -3,-2 -5,-3 3,-2 6,-1 9,-1 1,0 2,0 3,0 0,0 0,0 0,0 0,0 1,-1 0,-1 -1,-6 -1,-8 -1,-11z"/>
      </g>
      <g>
       <path class="fil3" d="M1376 1305c5,2 3,1 16,4 4,-4 2,-2 11,-13 2,-4 -6,-11 -9,-5 -4,-8 -14,-5 -13,3 -7,-1 -9,9 -5,11z"/>
       <path class="fil1" d="M1376 1306c3,1 4,1 7,2 3,1 6,1 9,2 0,0 1,0 1,0 0,0 0,0 0,0 1,-1 1,-2 2,-3 1,-2 3,-3 8,-10 0,0 0,0 0,-1 0,0 0,0 0,0 1,-2 1,-4 -1,-6 -1,-1 -1,-1 -2,-1 -1,-1 -2,-1 -2,-1 -2,0 -3,0 -4,1 -1,-2 -3,-3 -4,-3 -2,-1 -3,0 -5,0 -1,0 -2,1 -3,2 -1,1 -2,3 -2,6 -2,-1 -3,0 -4,1 -1,1 -2,2 -2,3 -1,1 -1,2 -1,4 0,1 1,3 3,4 0,0 0,0 0,0zm8 1c-4,-1 -4,-1 -8,-2 -1,-1 -1,-2 -1,-4 0,0 0,-1 0,-2 0,-1 1,-2 2,-3 1,-1 2,-1 4,-1 0,0 0,0 0,0 0,0 0,0 0,-1 0,-2 1,-4 2,-5 1,-1 2,-1 3,-2 1,0 2,0 3,0 2,1 4,2 5,4 0,0 0,0 0,0 1,1 1,0 1,0 1,-1 2,-2 3,-2 0,0 1,1 1,1 1,0 1,1 2,1 1,1 2,3 1,5 -6,7 -7,8 -8,10 -1,1 -1,2 -2,3 -3,-1 -6,-2 -8,-2z"/>
       <path class="fil4" d="M1387 1292c1,4 -3,5 -2,15 -4,-1 -8,-4 -13,-1 5,2 9,17 23,11 15,-5 9,-17 12,-23 -7,0 -8,6 -10,8 -4,-5 -7,-7 -10,-10z"/>
       <path class="fil1" d="M1387 1292c0,2 -1,3 -1,4 -1,2 -2,4 -2,10 0,-1 -1,-1 -1,-1 -3,-1 -7,-2 -11,0 -1,0 -1,1 -1,1 0,0 0,0 1,0 0,0 0,0 0,0 1,1 3,3 4,5 4,5 9,11 20,7 0,0 0,0 0,0 10,-4 10,-11 10,-17 1,-2 1,-5 2,-6 0,-1 0,-1 -1,-1 0,0 0,-1 0,-1 0,0 0,0 0,0 -6,0 -8,4 -9,7 -1,0 -1,1 -1,1 -2,-3 -4,-5 -6,-6 -1,-1 -2,-2 -3,-3 0,0 -1,0 -1,0 0,0 0,0 0,0zm0 4c0,0 1,-1 1,-2 1,1 1,1 2,2 2,2 4,3 6,7 0,0 0,0 1,0 0,0 0,0 1,0 0,-1 1,-2 1,-2 1,-3 3,-6 7,-6 -1,2 -1,4 -1,6 0,6 -1,12 -10,16 0,0 0,0 0,0 -9,3 -14,-2 -18,-7 -1,-2 -2,-3 -4,-4 4,-1 7,0 9,1 1,0 2,0 3,0 0,0 0,0 0,0 0,0 1,0 0,0 0,-6 1,-9 2,-11z"/>
      </g>
      <g>
       <path class="fil3" d="M1366 1270c4,1 3,1 15,5 3,-4 2,-3 11,-12 3,-4 -5,-11 -8,-6 -3,-8 -13,-6 -13,2 -6,-1 -9,8 -5,11z"/>
       <path class="fil1" d="M1365 1270c4,2 4,2 7,3 3,1 6,2 9,3 0,0 0,0 0,-1 0,0 0,0 0,0 1,-1 2,-2 3,-2 1,-2 2,-3 9,-10 0,0 0,0 0,0 0,0 0,0 0,0 1,-2 0,-4 -1,-6 -1,-1 -2,-1 -2,-2 -1,0 -2,0 -2,-1 -1,0 -3,1 -3,2 -2,-2 -3,-4 -5,-4 -1,-1 -3,-1 -4,0 -1,0 -2,0 -3,1 -2,2 -3,3 -3,5 -1,0 -3,1 -4,2 -1,0 -2,1 -2,2 -1,1 -1,3 -1,4 0,1 1,3 2,4 0,0 0,0 0,0zm8 1c-4,-1 -4,-1 -7,-2 -1,-1 -1,-2 -1,-3 0,-1 0,-2 0,-3 1,-1 1,-2 2,-2 1,-1 2,-1 4,-1 0,0 0,0 0,0 0,0 1,0 1,-1 0,-2 0,-3 2,-5 0,0 1,-1 2,-1 2,0 3,0 4,0 1,1 3,2 4,4 0,0 0,1 0,1 0,0 1,0 1,-1 1,-1 2,-1 3,-1 0,0 1,0 1,0 1,1 1,1 2,2 1,1 1,3 0,4 -6,7 -7,8 -8,10 -1,0 -2,1 -2,2 -3,-1 -6,-2 -8,-3z"/>
       <path class="fil4" d="M1377 1258c0,3 -3,4 -3,13 -3,-1 -7,-3 -13,-1 6,2 8,17 22,13 14,-4 10,-16 13,-22 -7,0 -8,5 -10,7 -3,-6 -7,-7 -9,-10z"/>
       <path class="fil1" d="M1377 1258c0,1 -1,2 -1,3 -1,2 -3,4 -3,9 0,0 -1,0 -1,0 -3,-1 -6,-3 -11,-1 0,0 0,0 0,1 0,0 0,0 0,0 0,0 0,0 0,0 2,1 3,3 4,5 4,5 8,11 18,9 0,-1 0,-1 0,-1 11,-2 11,-9 12,-15 0,-2 1,-5 2,-6 0,-1 0,-1 0,-1 0,0 -1,0 -1,0 0,0 0,0 0,0 -6,-1 -8,2 -9,5 0,0 -1,1 -1,1 -2,-3 -4,-5 -5,-6 -1,-1 -2,-2 -3,-3 0,-1 -1,-1 -1,-1 0,1 0,1 0,1zm0 4c0,-1 1,-2 1,-2 0,0 1,1 2,2 2,1 4,3 5,7 0,0 0,0 0,0 1,0 1,0 1,0 1,-1 2,-1 2,-2 1,-2 3,-5 7,-5 -1,2 -1,4 -1,6 -1,5 -2,12 -11,14 0,0 0,0 0,0 -9,3 -13,-3 -17,-8 -1,-2 -2,-3 -3,-4 3,-1 6,0 8,1 1,1 2,1 3,1 0,0 0,0 0,0 0,0 1,0 1,-1 0,-5 1,-7 2,-9z"/>
      </g>
      <g>
       <path class="fil3" d="M1358 1234c4,2 3,2 14,6 4,-3 3,-2 12,-11 2,-4 -4,-11 -7,-6 -3,-8 -13,-6 -13,2 -6,-2 -10,6 -6,9z"/>
       <path class="fil1" d="M1358 1235c3,1 3,1 6,3 3,1 5,2 8,3 0,0 0,0 1,0 0,0 0,0 0,0 1,-1 1,-2 2,-3 2,-1 3,-2 9,-8 0,0 0,0 0,0 0,0 0,0 0,0 2,-2 1,-5 0,-6 -1,-1 -1,-2 -2,-2 -1,-1 -1,-1 -2,-1 -1,0 -2,0 -3,1 -1,-2 -3,-3 -4,-4 -1,0 -3,-1 -4,0 -1,0 -2,0 -3,1 -2,1 -3,3 -3,5 -2,0 -3,0 -4,1 -1,0 -2,1 -2,2 -1,1 -1,2 -1,3 -1,2 0,4 1,5 0,0 0,0 1,0zm7 2c-4,-2 -4,-2 -7,-3 -1,-1 -1,-2 -1,-3 0,-1 0,-2 1,-3 0,-1 1,-2 2,-2 1,-1 2,-1 3,-1 0,0 0,0 0,0 1,1 1,0 1,0 0,-2 1,-4 2,-5 1,0 2,-1 3,-1 1,0 2,0 3,0 2,1 3,2 4,5 0,0 0,0 0,0 1,0 1,0 1,0 1,-1 2,-2 3,-2 0,0 1,1 1,1 1,0 1,1 2,1 1,2 1,4 0,5 -6,6 -7,7 -9,8 0,1 -1,2 -2,3 -2,-1 -5,-2 -7,-3z"/>
       <path class="fil4" d="M1370 1224c0,3 -4,4 -4,13 -3,-2 -7,-5 -12,-3 5,3 6,17 20,14 14,-3 10,-15 14,-20 -7,-1 -8,5 -10,6 -3,-6 -6,-7 -8,-10z"/>
       <path class="fil1" d="M1369 1224c0,1 0,2 -1,3 -1,1 -2,4 -3,9 0,-1 -1,-1 -1,-1 -3,-1 -6,-3 -10,-2 -1,1 -1,1 -1,1 0,0 0,1 0,1 0,0 0,0 0,0 2,1 3,2 4,5 3,5 7,11 17,9 0,0 0,0 0,0 10,-2 11,-9 12,-14 1,-3 1,-5 2,-6 1,-1 1,-1 0,-1 0,0 0,-1 0,-1 0,0 0,0 0,0 -6,0 -8,3 -9,5 -1,1 -1,1 -1,1 -2,-3 -4,-5 -5,-6 -1,-1 -2,-2 -3,-3 0,-1 0,-1 0,-1 -1,0 -1,1 -1,1zm0 4c1,-1 1,-2 1,-2 1,0 1,1 2,2 2,1 3,3 5,7 0,0 0,0 0,0 0,0 1,0 1,0 1,-1 1,-1 2,-2 1,-2 3,-4 7,-4 -1,1 -1,3 -2,5 -1,6 -2,12 -11,13 0,0 0,0 0,0 -9,2 -13,-3 -16,-8 -1,-2 -2,-3 -3,-5 4,0 6,1 8,2 1,1 2,1 2,1 0,0 1,0 1,0 0,0 0,0 0,0 1,-5 2,-8 3,-9z"/>
      </g>
      <g>
       <path class="fil3" d="M1354 1198c4,3 3,2 13,8 4,-3 2,-2 13,-8 3,-4 -2,-11 -6,-7 -1,-8 -11,-8 -13,-1 -5,-3 -10,5 -7,8z"/>
       <path class="fil1" d="M1354 1199c2,1 3,2 6,4 2,1 4,2 6,4 1,0 1,0 1,0 0,0 0,0 0,0 1,-1 2,-2 3,-2 2,-1 3,-2 10,-7 0,0 0,0 0,0 0,0 0,0 0,0 2,-1 2,-4 1,-6 -1,-1 -1,-1 -2,-2 0,0 -1,-1 -1,-1 -1,0 -3,0 -4,0 0,-2 -1,-3 -3,-4 -1,-1 -2,-1 -3,-1 -2,0 -3,0 -4,1 -1,1 -3,2 -3,4 -2,-1 -3,-1 -4,0 -1,0 -2,1 -3,2 -1,1 -1,2 -1,3 -1,2 -1,3 0,5 1,0 1,0 1,0zm6 2c-3,-2 -3,-2 -6,-3 0,-1 0,-2 0,-4 0,-1 1,-1 1,-2 1,-1 1,-1 2,-2 1,0 3,0 4,0 0,0 0,1 0,1 0,0 1,-1 1,-1 0,-2 1,-3 3,-4 1,0 2,-1 3,-1 1,0 2,1 3,1 1,1 2,3 2,5 0,0 1,0 1,0 0,0 0,0 1,0 0,-1 1,-1 2,-1 1,1 1,1 1,1 1,1 1,1 1,2 1,1 1,3 0,4 -7,5 -8,6 -10,7 0,0 -1,1 -2,1 -2,-1 -5,-2 -7,-4z"/>
       <path class="fil4" d="M1367 1190c0,3 -4,3 -6,12 -3,-2 -5,-6 -11,-5 4,4 3,17 17,17 14,0 12,-13 17,-17 -7,-2 -9,3 -11,5 -1,-7 -5,-9 -6,-12z"/>
       <path class="fil1" d="M1367 1190c-1,1 -1,2 -2,3 -1,1 -3,3 -4,8 -1,-1 -1,-1 -1,-1 -3,-2 -5,-4 -10,-4 0,1 0,1 0,1 0,0 0,1 0,1 0,0 0,0 0,0 1,1 2,3 3,5 2,5 4,12 14,12 0,0 0,0 0,0 10,-1 12,-7 14,-12 1,-2 2,-4 3,-5 1,0 1,-1 0,-1 0,0 0,0 0,0 0,0 0,0 0,0 -5,-2 -8,0 -10,2 0,1 0,1 -1,1 -1,-3 -2,-5 -3,-7 -1,-1 -2,-2 -2,-3 0,0 -1,-1 -1,-1 0,1 0,1 0,1zm-1 3c1,0 1,-1 1,-1 1,1 1,1 2,2 1,2 2,4 3,8 0,0 0,0 0,0 1,0 1,0 1,0 1,0 2,-1 2,-2 2,-1 4,-3 8,-2 -1,1 -2,3 -3,5 -2,5 -4,10 -13,10 0,0 0,0 0,0 -9,1 -11,-6 -13,-11 -1,-1 -2,-3 -2,-4 3,0 5,1 7,3 1,0 1,1 2,1 0,0 0,0 0,0 0,0 1,0 1,0 1,-5 3,-7 4,-9z"/>
      </g>
      <g>
       <path class="fil3" d="M1356 1166c4,2 2,1 12,8 4,-3 3,-2 13,-9 3,-3 -2,-10 -6,-6 -1,-8 -10,-8 -12,-1 -5,-3 -10,4 -7,8z"/>
       <path class="fil1" d="M1356 1166c2,2 2,2 5,4 3,1 5,3 7,4 0,0 0,0 1,0 0,0 0,0 0,0 1,-1 2,-1 2,-2 2,-1 3,-2 10,-6 0,0 0,0 0,0 0,0 0,0 0,0 2,-2 2,-4 1,-6 0,-1 -1,-1 -1,-2 -1,0 -1,-1 -2,-1 -1,0 -2,0 -3,0 -1,-2 -2,-3 -3,-4 -1,-1 -3,-1 -4,-1 -1,0 -2,0 -3,1 -2,1 -3,2 -4,4 -1,-1 -2,-1 -3,0 -1,0 -2,1 -3,2 -1,1 -1,2 -1,3 -1,1 -1,3 0,4 0,0 0,0 1,0zm6 3c-3,-2 -3,-2 -6,-4 0,-1 -1,-2 0,-3 0,-1 0,-2 1,-2 1,-1 1,-2 2,-2 1,0 2,0 4,0 0,0 0,0 0,0 0,0 0,0 0,0 1,-2 2,-3 3,-4 1,-1 2,-1 3,-1 1,0 2,1 3,1 1,1 2,2 3,5 0,0 0,0 0,0 0,0 1,0 1,0 1,-1 2,-1 2,-1 1,0 1,1 2,1 0,1 0,1 1,2 0,1 1,3 0,4 -7,4 -9,5 -10,6 -1,1 -2,1 -3,2 -2,-1 -4,-3 -6,-4z"/>
       <path class="fil4" d="M1369 1158c-1,3 -4,3 -6,11 -3,-2 -6,-5 -11,-4 4,3 3,16 17,16 13,0 12,-12 16,-16 -6,-2 -8,3 -11,4 -1,-6 -4,-8 -5,-11z"/>
       <path class="fil1" d="M1368 1158c0,1 -1,1 -1,2 -2,2 -3,4 -5,8 0,0 0,0 -1,-1 -2,-1 -5,-4 -9,-3 0,0 0,0 0,1 0,0 0,0 0,0 0,0 0,0 0,0 1,1 2,3 2,5 2,6 5,12 15,12 0,0 0,0 0,0 9,0 12,-6 14,-11 0,-2 1,-4 2,-6 1,0 1,0 1,0 -1,-1 -1,-1 -1,-1 0,0 0,0 0,0 -5,-1 -7,1 -9,3 -1,0 -1,1 -1,1 -1,-3 -3,-5 -4,-7 0,-1 -1,-2 -1,-3 -1,-1 -1,-1 -1,-1 0,0 -1,1 -1,1zm0 3c0,0 1,-1 1,-1 0,0 1,1 1,2 1,2 3,4 4,7 0,0 0,0 0,0 0,1 0,1 1,1 0,-1 1,-1 1,-2 2,-2 4,-4 8,-3 -1,2 -2,3 -3,5 -1,5 -4,10 -12,11 0,0 0,0 0,0 -9,0 -12,-6 -13,-11 -1,-2 -2,-4 -2,-5 3,0 5,2 7,3 0,1 1,1 1,2 1,0 1,0 1,0 0,0 0,0 0,-1 2,-4 3,-6 5,-8z"/>
      </g>
      <g>
       <path class="fil3" d="M1360 1130c4,3 2,2 10,10 5,-2 3,-1 14,-5 4,-3 1,-11 -4,-8 1,-8 -8,-10 -11,-3 -4,-4 -11,2 -9,6z"/>
       <path class="fil1" d="M1360 1130c2,3 2,3 5,5 1,2 3,4 5,5 0,1 0,1 1,1 0,0 0,0 0,0 1,-1 2,-1 3,-2 1,0 3,-1 10,-4 1,0 1,0 1,0 0,0 0,0 0,0 1,-1 2,-3 1,-5 0,-1 0,-2 -1,-2 0,-1 0,-1 -1,-2 -1,0 -2,0 -3,0 0,-2 -1,-4 -2,-5 -1,-1 -2,-1 -3,-1 -1,-1 -2,-1 -3,0 -2,0 -3,1 -5,3 -1,-1 -2,-1 -3,-1 -1,0 -2,1 -3,1 -1,1 -2,2 -2,3 -1,1 -1,3 0,4 0,0 0,0 0,0zm5 4c-2,-2 -2,-2 -4,-5 -1,-1 -1,-2 0,-3 0,0 1,-1 2,-2 0,0 1,-1 2,-1 1,0 2,0 3,1 0,0 0,0 0,0 1,0 1,0 1,0 1,-2 2,-3 4,-3 1,0 2,0 3,0 1,0 1,1 2,1 1,1 2,3 2,5 0,0 0,0 0,1 0,0 1,0 1,0 1,-1 2,-1 2,-1 1,1 1,1 1,2 1,0 1,1 1,1 0,2 0,3 -1,4 -7,3 -9,4 -11,4 -1,1 -1,1 -2,1 -2,-1 -4,-3 -6,-5z"/>
       <path class="fil4" d="M1374 1125c-1,3 -4,2 -8,10 -2,-3 -4,-6 -9,-7 3,4 -1,17 12,19 13,3 14,-9 19,-12 -5,-3 -8,1 -11,2 0,-6 -2,-9 -3,-12z"/>
       <path class="fil1" d="M1374 1125c-1,1 -1,1 -2,2 -2,1 -4,3 -6,6 0,0 0,0 -1,0 -2,-3 -4,-5 -8,-5 0,-1 -1,0 -1,0 0,0 0,0 1,1 0,0 0,0 0,0 0,1 1,3 1,5 1,5 2,12 11,14 0,0 0,0 0,0 9,2 13,-3 16,-8 1,-2 2,-3 4,-4 0,0 0,-1 0,-1 0,0 0,0 0,0 0,0 0,0 0,0 -5,-3 -8,-1 -10,0 -1,1 -1,1 -1,1 0,-3 -1,-6 -2,-7 0,-2 -1,-3 -1,-4 0,0 0,-1 -1,0 0,0 0,0 0,0zm-2 3c1,0 2,-1 2,-1 0,0 1,1 1,2 1,2 2,4 2,8 0,0 0,0 0,0 0,1 0,1 0,1 1,-1 2,-1 2,-2 2,-1 5,-2 8,-1 -1,1 -2,3 -3,5 -3,4 -6,8 -15,7 0,0 0,0 0,0 -8,-2 -9,-8 -10,-13 0,-2 0,-4 -1,-5 3,1 5,3 6,4 1,1 1,2 2,2 0,0 0,0 0,0 0,0 1,0 1,0 2,-4 4,-6 5,-7z"/>
      </g>
      <g>
       <path class="fil3" d="M1369 1098c3,4 2,3 10,11 4,-2 3,-1 14,-5 3,-2 0,-10 -4,-8 1,-7 -8,-9 -11,-3 -4,-4 -11,2 -9,5z"/>
       <path class="fil1" d="M1369 1099c2,2 2,2 4,5 2,2 4,3 5,5 1,0 1,0 1,0 0,0 0,0 0,0 1,0 2,0 3,-1 2,0 3,-1 11,-3 0,0 0,0 0,0 0,0 0,0 0,0 2,-1 2,-4 2,-6 0,0 -1,-1 -1,-2 0,0 -1,-1 -1,-1 -1,-1 -2,-1 -3,-1 0,-2 -1,-3 -2,-4 -1,-1 -2,-2 -3,-2 -1,-1 -2,-1 -4,0 -1,0 -3,1 -4,3 -1,-1 -2,-1 -3,-1 -1,0 -2,0 -3,1 -1,1 -2,2 -2,2 -1,2 -1,3 0,5 0,0 0,0 0,0zm5 4c-2,-3 -2,-3 -4,-5 -1,-1 -1,-2 0,-3 0,-1 1,-1 2,-2 0,0 1,-1 2,-1 1,0 2,0 3,1 0,0 0,0 0,0 1,0 1,0 1,0 1,-2 2,-3 4,-3 1,0 2,0 3,0 0,0 1,1 2,2 1,1 2,2 1,4 0,1 0,1 1,1 0,0 0,0 0,0 1,-1 2,-1 3,0 0,0 1,1 1,1 0,0 0,1 1,2 0,1 0,3 -2,4 -7,2 -9,3 -10,3 -1,0 -2,1 -3,1 -2,-2 -3,-3 -5,-5z"/>
       <path class="fil4" d="M1383 1094c-1,3 -4,2 -8,9 -2,-2 -4,-6 -9,-6 3,4 -1,16 11,19 13,3 14,-9 19,-11 -5,-4 -8,0 -10,1 0,-6 -3,-9 -3,-12z"/>
       <path class="fil1" d="M1383 1094c-1,1 -2,1 -2,2 -2,1 -4,2 -6,6 0,0 -1,0 -1,-1 -2,-2 -4,-4 -8,-5 0,0 -1,0 -1,1 0,0 0,0 0,0 0,0 0,0 0,0 1,1 2,3 2,6 0,5 1,11 10,14 0,0 0,0 0,0 9,2 13,-3 16,-7 1,-2 2,-4 4,-5 0,0 0,0 0,-1 0,0 0,0 0,0 0,0 0,0 0,0 -5,-3 -7,-1 -10,0 0,1 -1,1 -1,1 0,-3 -1,-5 -1,-7 -1,-2 -1,-3 -1,-4 0,0 -1,0 -1,0 0,0 0,0 0,0zm-2 3c1,0 1,-1 2,-1 0,1 0,1 1,2 0,2 1,4 1,8 0,0 0,0 0,0 0,0 0,1 1,1 0,-1 1,-1 2,-1 2,-2 4,-3 7,-1 -1,1 -2,2 -3,4 -3,4 -6,8 -14,6 0,0 0,0 0,0 -9,-2 -9,-8 -10,-13 0,-1 0,-3 -1,-4 3,0 5,2 6,4 1,1 1,1 1,2 0,0 0,0 1,0 0,0 0,0 0,0 3,-5 5,-6 6,-7z"/>
      </g>
      <g>
       <path class="fil3" d="M1384 1066c2,4 2,2 7,12 5,0 3,0 14,-1 4,-2 3,-10 -1,-8 2,-8 -6,-12 -10,-7 -3,-4 -11,0 -10,4z"/>
       <path class="fil1" d="M1384 1066c1,3 1,3 3,6 1,2 2,4 3,6 1,0 1,1 1,1 0,0 0,0 0,0 2,-1 2,-1 3,-1 2,0 4,0 11,-1 0,0 0,0 0,0 0,0 0,0 0,0 2,0 3,-2 3,-4 0,-1 0,-2 0,-2 0,-1 0,-2 -1,-2 0,-1 -1,-1 -2,-1 0,-2 0,-4 -1,-5 -1,-1 -1,-2 -2,-3 -1,0 -3,-1 -4,-1 -1,0 -3,1 -4,2 -1,-1 -2,-1 -4,-1 -1,-1 -2,0 -3,0 -1,0 -1,1 -2,2 -1,1 -2,2 -1,4 0,0 0,0 0,0zm4 5c-2,-3 -2,-3 -3,-6 0,-1 0,-2 1,-2 0,-1 1,-1 2,-2 1,0 1,0 2,0 1,0 2,0 3,2 0,0 0,0 0,0 0,0 1,0 1,0 1,-2 3,-2 4,-2 1,0 2,0 3,0 1,1 1,1 2,2 1,2 1,3 0,5 0,0 0,1 0,1 0,0 1,0 1,0 1,0 2,0 2,1 1,0 1,0 1,1 0,0 0,1 0,2 0,1 0,3 -2,3 -8,1 -9,1 -11,1 -1,0 -1,0 -3,0 -1,-2 -2,-4 -3,-6z"/>
       <path class="fil4" d="M1399 1065c-2,2 -5,1 -11,7 -1,-3 -2,-7 -6,-9 1,5 -5,16 6,22 11,5 15,-6 21,-7 -4,-4 -8,-1 -11,-1 2,-6 0,-9 1,-12z"/>
       <path class="fil1" d="M1398 1065c-1,0 -1,1 -2,1 -2,1 -4,2 -7,5 -1,-1 -1,-1 -1,-1 -1,-3 -2,-6 -6,-7 -1,0 -1,0 -1,0 0,0 0,0 0,1 0,0 0,0 0,0 1,1 0,3 0,5 -1,5 -2,12 7,16 0,0 0,0 0,0 8,4 12,0 16,-3 2,-1 3,-3 5,-3 0,0 1,-1 0,-1 0,0 0,0 0,0 0,0 0,0 0,0 -3,-4 -6,-3 -9,-2 0,0 -1,0 -1,0 1,-3 0,-5 0,-7 0,-2 0,-3 0,-4 0,0 0,0 0,-1 -1,0 -1,1 -1,1zm-2 2c1,0 1,0 2,-1 0,1 0,2 0,3 0,2 0,4 0,8 -1,0 -1,0 -1,0 0,0 1,0 1,0 1,0 2,0 2,0 2,-1 5,-1 8,1 -2,1 -3,2 -5,3 -3,3 -7,7 -15,3 0,0 0,0 0,0 -7,-4 -6,-10 -6,-15 0,-2 1,-3 0,-5 3,2 4,4 5,6 0,1 1,1 1,2 0,0 0,0 0,0 0,0 1,0 1,0 3,-3 5,-4 7,-5z"/>
      </g>
      <g>
       <path class="fil3" d="M1402 1036c1,5 0,3 3,14 5,1 3,0 14,3 4,-1 6,-9 1,-9 4,-6 -2,-12 -8,-8 -2,-6 -10,-4 -10,0z"/>
       <path class="fil1" d="M1401 1036c1,3 1,4 2,7 0,2 1,5 1,7 0,0 1,0 1,0 0,0 0,0 0,0 1,1 2,1 3,1 2,0 3,1 11,2 0,0 0,0 0,0 0,0 0,0 0,0 2,0 3,-2 4,-4 0,0 0,-1 0,-2 0,0 0,-1 0,-1 0,-1 -1,-2 -2,-2 1,-2 1,-4 0,-5 0,-1 0,-2 -1,-3 -1,-1 -2,-2 -3,-2 -2,0 -3,0 -5,1 -1,-2 -1,-2 -3,-3 -1,0 -2,0 -3,0 -1,0 -2,0 -2,1 -2,1 -3,2 -3,3 0,0 0,0 0,0zm3 6c-1,-3 -1,-3 -2,-6 0,-1 1,-2 2,-2 1,-1 2,-1 2,-1 1,0 2,0 3,0 1,1 2,1 2,3 0,0 0,0 0,0 0,0 1,0 1,0 2,-1 3,-1 5,-1 0,1 1,1 2,2 1,0 1,1 1,2 1,2 0,3 -1,5 0,0 0,0 0,0 0,1 0,1 1,1 1,0 2,0 2,1 0,0 0,1 0,1 0,1 0,2 0,2 -1,2 -2,3 -3,3 -8,-2 -9,-2 -11,-2 -1,0 -1,-1 -3,-1 0,-2 -1,-4 -1,-7z"/>
       <path class="fil4" d="M1416 1040c-3,1 -5,-1 -12,3 0,-3 0,-7 -4,-10 0,5 -9,14 0,22 10,9 16,0 22,0 -3,-6 -8,-4 -10,-4 3,-5 2,-9 4,-11z"/>
       <path class="fil1" d="M1415 1039c0,1 -1,1 -2,1 -2,0 -4,0 -8,2 0,0 0,-1 -1,-1 0,-3 0,-6 -4,-8 0,0 0,0 -1,0 0,0 0,0 0,0 0,0 0,0 0,0 0,2 0,4 -1,6 -2,4 -5,10 2,17 0,0 0,0 0,0 6,6 12,3 16,1 2,-1 4,-2 6,-1 0,0 0,-1 1,-1 0,0 0,0 -1,0 0,0 0,0 0,0 -2,-5 -5,-5 -8,-5 0,0 -1,0 -1,0 2,-3 2,-5 2,-7 1,-1 1,-2 1,-3 0,0 0,-1 0,-1 0,0 0,0 -1,0zm-2 2c0,0 1,0 2,0 -1,0 -1,1 -1,2 0,2 -1,4 -3,7 0,0 0,0 0,1 0,0 1,0 1,0 1,0 1,0 2,0 2,0 5,0 7,3 -2,1 -3,1 -5,2 -4,2 -9,4 -15,-1 0,0 0,0 0,0 -6,-6 -4,-11 -2,-16 1,-2 1,-3 1,-4 3,2 3,4 3,6 0,1 1,2 1,2 0,0 0,0 0,1 0,0 0,0 1,0 4,-3 6,-3 8,-3z"/>
      </g>
      <g>
       <path class="fil3" d="M1441 986c1,4 0,2 2,13 5,1 3,1 14,4 4,0 6,-9 1,-9 5,-6 -1,-12 -7,-9 -2,-5 -10,-4 -10,1z"/>
       <path class="fil8" d="M1440 986c1,3 1,3 1,6l2 7c0,0 0,1 0,1l0 0c2,0 2,0 3,0 2,1 3,1 11,3 0,0 0,0 0,0l0 0c2,0 4,-1 4,-3 1,-1 1,-2 1,-2 0,-1 0,-2 -1,-2 0,-1 -1,-2 -2,-2 1,-2 2,-4 1,-5 0,-1 0,-2 -1,-3 -1,-1 -2,-2 -3,-2 -1,0 -3,0 -5,0 0,-1 -1,-2 -2,-2 -1,-1 -2,-1 -3,-1 -1,0 -2,1 -3,1 -2,1 -3,2 -3,3 0,1 0,1 0,1zm3 6c-1,-3 -1,-4 -2,-7 1,-1 1,-1 2,-2 1,0 2,0 3,-1 0,0 1,1 2,1 1,0 2,1 2,2 0,0 0,0 0,1 0,0 1,0 1,0 2,-1 3,-1 5,-1 0,1 1,1 2,2 0,0 1,1 1,2 0,2 0,3 -1,5 0,0 0,0 0,0 0,1 0,1 0,1 1,0 2,1 2,1 1,1 1,1 1,2 0,0 -1,1 -1,1 0,2 -1,3 -3,3 -7,-2 -9,-2 -11,-3 0,0 -1,0 -2,0l-1 -7z"/>
       <path class="fil4" d="M1454 990c-2,1 -4,-1 -11,3 -1,-3 0,-8 -4,-11 0,6 -9,13 -1,22 9,9 16,1 22,1 -3,-6 -7,-4 -10,-5 4,-4 3,-8 4,-10z"/>
       <path class="fil8" d="M1454 989c-1,0 -2,0 -3,1 -1,0 -4,0 -8,2 0,-1 0,-1 0,-2 0,-2 0,-5 -3,-8 -1,0 -1,0 -1,0 0,0 0,0 0,0l0 0c0,2 -1,4 -2,6 -3,4 -6,10 1,17l0 0c6,6 12,4 16,2 2,-1 4,-1 6,-1 0,0 0,-1 1,-1 0,0 0,0 -1,0l0 0c-2,-5 -5,-5 -8,-5 0,0 0,0 -1,0 2,-3 2,-5 3,-7 0,-1 0,-2 1,-3 0,-1 0,-1 0,-1 0,0 -1,0 -1,0zm-3 2c1,0 2,0 2,0 0,0 0,1 0,2 -1,2 -1,4 -3,7 0,0 0,0 0,0 0,1 0,1 0,1 1,0 1,0 2,0 2,0 5,0 7,3 -2,1 -3,1 -5,2 -4,2 -9,4 -15,-2l0 0c-6,-6 -3,-12 -1,-16 1,-1 1,-3 2,-4 2,2 2,4 2,7 0,0 0,1 0,2 0,0 0,0 0,0 1,0 1,0 1,0 4,-2 7,-2 8,-2z"/>
      </g>
      <g>
       <path class="fil3" d="M1423 1375c5,-2 3,-1 17,-4 1,-6 1,-4 4,-18 0,-5 -10,-7 -10,-1 -8,-6 -16,2 -12,10 -7,1 -5,12 1,13z"/>
       <path class="fil8" d="M1423 1375c4,0 4,0 8,-1l9 -2c1,0 1,0 1,-1l0 0c0,-1 0,-2 1,-3 0,-3 1,-5 3,-14 0,0 0,0 0,0l0 0c0,-3 -2,-5 -4,-6 -1,0 -2,-1 -3,-1 -1,0 -2,0 -2,1 -2,0 -2,1 -3,3 -2,-2 -4,-2 -6,-2 -2,1 -3,1 -4,2 -1,1 -2,2 -2,4 -1,2 -1,4 0,6 -2,1 -3,2 -3,3 -1,2 -1,3 -1,4 0,2 0,3 1,4 1,2 3,3 4,3 1,0 1,0 1,0zm8 -3c-5,1 -5,1 -9,2 -1,0 -2,-1 -3,-3 0,-1 0,-2 0,-3 -1,-1 0,-2 0,-3 1,-1 2,-2 3,-3 0,0 0,0 0,0 1,0 1,0 1,-1 -1,-2 -1,-4 -1,-6 0,-1 1,-2 2,-3 1,0 2,-1 3,-1 2,0 4,0 6,2 1,0 1,0 1,0 0,0 1,-1 1,-1 0,-2 0,-2 1,-3 1,0 1,0 2,0 1,0 2,0 2,0 2,1 4,2 4,4 -3,10 -3,12 -4,14 0,1 0,2 -1,4l-8 1z"/>
       <path class="fil4" d="M1428 1357c1,3 -1,6 4,15 -4,0 -10,0 -13,5 6,0 16,12 28,1 11,-12 0,-21 1,-28 -8,3 -5,9 -6,12 -7,-4 -11,-3 -14,-5z"/>
       <path class="fil8" d="M1427 1357c1,1 1,2 1,4 0,2 0,5 2,10 0,0 -1,0 -1,0 -4,1 -8,1 -11,5 0,0 0,1 0,1 0,0 0,0 1,0l0 0c1,0 4,2 6,3 6,3 14,6 22,-2l0 0c9,-8 6,-15 3,-21 -1,-3 -2,-5 -2,-7 0,-1 0,-1 0,-1 0,0 -1,0 -1,0l0 0c-6,3 -6,7 -6,10 0,1 0,1 0,2 -3,-2 -6,-3 -9,-3 -1,-1 -3,-1 -4,-2 0,0 -1,0 -1,0 0,1 0,1 0,1zm2 4c0,-1 0,-2 0,-3 1,1 2,1 3,1 3,1 6,1 9,4 0,0 0,0 0,0 1,0 1,0 1,-1 1,0 1,-1 1,-3 0,-2 0,-6 4,-8 0,2 1,4 2,6 2,6 5,13 -3,20l0 0c-8,8 -14,4 -20,1 -2,-1 -4,-2 -6,-2 3,-3 6,-3 9,-3 1,0 2,0 3,-1 0,0 0,0 0,0 0,0 0,0 0,-1 -3,-5 -3,-8 -3,-10z"/>
      </g>
      <g>
       <path class="fil3" d="M1418 1009c1,5 1,3 3,14 4,1 3,0 13,3 5,0 6,-8 2,-8 4,-6 -2,-12 -8,-9 -1,-5 -9,-4 -10,0z"/>
       <path class="fil8" d="M1417 1009c1,3 1,4 2,7l1 7c0,0 0,0 0,0l0 0c2,1 3,1 3,1 2,1 4,1 11,3 0,0 0,0 0,0l0 0c2,0 4,-2 5,-4 0,0 0,-1 0,-2 0,0 0,-1 0,-2 -1,0 -1,-1 -2,-1 1,-2 1,-4 1,-5 -1,-1 -1,-3 -2,-3 -1,-1 -2,-2 -3,-2 -1,-1 -3,-1 -5,0 0,-1 -1,-2 -2,-3 -1,0 -2,0 -3,0 -1,0 -2,0 -3,1 -1,1 -2,2 -3,3 0,0 0,0 0,0zm3 6c-1,-3 -1,-3 -1,-6 0,-1 1,-2 2,-2 0,-1 1,-1 2,-1 1,0 2,0 2,1 1,0 2,1 2,2 0,0 0,0 1,0 0,1 0,1 0,0 2,0 4,0 5,0 1,0 2,1 2,1 1,1 1,2 1,3 1,1 0,3 -1,5 0,0 0,0 0,0 0,0 0,1 1,1 1,0 1,0 2,1 0,0 0,1 0,1 0,1 0,2 0,2 -1,1 -2,3 -4,3 -7,-2 -9,-3 -10,-3 -1,0 -2,0 -3,-1l-1 -7z"/>
       <path class="fil4" d="M1432 1013c-3,2 -5,0 -12,3 0,-3 0,-7 -4,-10 1,5 -9,13 0,22 8,9 16,0 21,1 -2,-6 -7,-4 -9,-5 3,-5 2,-8 4,-11z"/>
       <path class="fil8" d="M1432 1013c-1,0 -2,0 -3,0 -2,0 -4,0 -8,2 0,0 0,0 0,-1 -1,-3 -1,-6 -4,-8 0,-1 -1,0 -1,0 0,0 0,0 0,0l0 0c0,2 -1,3 -2,5 -2,5 -5,11 1,17l0 0c6,7 12,5 17,3 2,-1 4,-2 5,-2 0,0 1,0 1,0 0,0 0,0 0,0l0 0c-2,-5 -6,-5 -8,-5 -1,0 -1,0 -1,0 1,-3 2,-5 2,-7 1,-1 1,-3 1,-3 0,-1 0,-1 0,-1 0,0 0,0 0,0zm-3 1c0,0 1,0 2,0 -1,1 -1,2 -1,3 0,2 -1,4 -3,7 0,0 0,0 0,0 0,0 0,1 0,1 1,0 2,0 3,0 2,0 4,0 6,3 -1,0 -3,1 -5,2 -4,1 -9,3 -15,-2l0 0c-6,-6 -3,-12 -1,-16 1,-2 2,-3 2,-5 2,3 2,5 2,7 0,1 1,2 1,2 0,0 0,0 0,1 0,0 0,0 0,0 5,-2 7,-2 9,-3z"/>
      </g>
     </g>
    </g>
   </g>
  </g>
 </g>
</svg>
